<svg width="973" height="470" viewBox="0 0 973 470" fill="none" xmlns="http://www.w3.org/2000/svg">
<path d="M958.328 348.231H15.2751C7.36841 348.231 0.958984 341.821 0.958984 333.913V90C0.958984 82.0921 7.36841 75.6816 15.2751 75.6816H958.328C966.234 75.6816 972.644 82.0921 972.644 90V333.913C972.644 341.821 966.234 348.231 958.328 348.231Z" fill="#F7F8FA"/>
<path d="M700.164 295.197C741.648 295.197 775.277 261.562 775.277 220.072C775.277 178.582 741.648 144.947 700.164 144.947C658.68 144.947 625.051 178.582 625.051 220.072C625.051 261.562 658.68 295.197 700.164 295.197Z" fill="white"/>
<path d="M153.408 234.39C186.8 234.39 213.869 207.316 213.869 173.919C213.869 140.522 186.8 113.448 153.408 113.448C120.016 113.448 92.9463 140.522 92.9463 173.919C92.9463 207.316 120.016 234.39 153.408 234.39Z" fill="white"/>
<path d="M432.265 320.126L443.784 305.865C436.13 293.369 436.11 293.337 428.455 280.841L410.518 284.627C403.054 279.202 399.284 276.462 391.817 271.038L389.881 252.805C375.634 249.383 375.597 249.374 361.35 245.952L351.343 261.315L328.512 264.929L314.25 253.409C301.759 261.064 301.727 261.084 289.233 268.739L293.019 286.679C287.595 294.144 284.855 297.915 279.431 305.38L261.202 307.32C257.78 321.569 257.771 321.606 254.35 335.855L269.71 345.861L273.323 368.695L261.805 382.959C269.459 395.455 269.479 395.487 277.133 407.983L295.071 404.197C302.534 409.622 306.305 412.362 313.768 417.787L315.708 436.019C329.955 439.441 329.992 439.45 344.236 442.873L354.243 427.51L377.074 423.895L391.335 435.416C403.829 427.761 403.862 427.741 416.356 420.085L412.567 402.145C417.994 394.68 420.734 390.909 426.158 383.444L444.387 381.505C447.809 367.255 447.818 367.219 451.239 352.969L435.879 342.961L432.265 320.126ZM358.72 381.863C338.04 385.137 318.62 371.025 315.346 350.339C312.072 329.656 326.186 310.236 346.866 306.962C367.546 303.688 386.965 317.8 390.239 338.483C393.513 359.169 379.4 378.589 358.72 381.863Z" fill="#B6CDFF"/>
<path d="M649.407 349.771C649.353 349.771 649.298 349.768 649.243 349.762L643.771 349.145C623.577 346.868 621.705 346.656 598.164 344.004C597.55 343.935 597.047 343.486 596.906 342.885L589.748 312.236L555.443 293.272L525.687 303.515C525.103 303.715 524.456 303.528 524.07 303.045L492.02 262.845C491.635 262.362 491.596 261.689 491.921 261.165L508.529 234.431L497.678 196.757L469.397 182.961C468.842 182.69 468.517 182.099 468.586 181.486L474.343 130.394C474.412 129.78 474.86 129.276 475.461 129.135L506.105 121.976L525.067 87.6659L514.825 57.9052C514.624 57.321 514.812 56.6738 515.296 56.2886C534.964 40.6028 535.408 40.2485 554.3 25.1789L555.483 24.235C555.967 23.8501 556.639 23.8104 557.164 24.1363L583.894 40.746L621.562 29.8934L635.361 1.60681C635.632 1.05154 636.223 0.727424 636.836 0.796267L687.92 6.55344C688.534 6.62253 689.038 7.07077 689.178 7.67226L696.332 38.3222C709.787 45.7559 716.914 49.6958 730.238 57.0617L730.641 57.2846L760.398 47.0418C760.981 46.8411 761.629 47.029 762.014 47.5119L794.064 87.7111C794.449 88.194 794.488 88.8671 794.163 89.3917L777.554 116.121L788.405 153.794L816.687 167.596C817.242 167.867 817.567 168.458 817.498 169.071L811.741 220.163C811.672 220.777 811.224 221.281 810.623 221.422L779.979 228.581C772.47 242.168 768.527 249.303 761.013 262.892L771.259 292.651C771.46 293.235 771.272 293.883 770.789 294.268L730.596 326.323C730.113 326.708 729.44 326.748 728.916 326.422L702.185 309.812L664.518 320.665L650.719 348.951C650.471 349.457 649.96 349.771 649.407 349.771ZM599.515 341.218C622.09 343.762 624.201 344 644.098 346.244L648.546 346.746L662.178 318.802C662.359 318.43 662.689 318.154 663.086 318.039L702 306.828C702.397 306.713 702.824 306.773 703.175 306.99L729.581 323.399L768.163 292.628L758.041 263.23C757.907 262.839 757.944 262.409 758.144 262.048C765.944 247.942 769.893 240.795 777.664 226.733L777.738 226.601C777.937 226.24 778.281 225.979 778.683 225.885L808.956 218.813L814.481 169.769L786.542 156.135C786.17 155.953 785.894 155.624 785.779 155.227L774.569 116.307C774.455 115.91 774.514 115.483 774.732 115.132L791.139 88.7264L760.374 50.1385L730.978 60.2569C730.588 60.3913 730.158 60.3539 729.797 60.1541L728.826 59.6172C715.316 52.1485 708.177 48.2021 694.352 40.5641C693.991 40.3641 693.73 40.0204 693.636 39.6181L686.57 9.33956L637.533 3.81305L623.901 31.757C623.72 32.1283 623.391 32.4054 622.994 32.5198L584.079 43.7316C583.683 43.8462 583.256 43.7869 582.905 43.5688L556.499 27.1603L556.121 27.4618C537.49 42.3228 536.799 42.8741 517.921 57.9293L528.038 87.3292C528.172 87.7199 528.135 88.149 527.935 88.5106L508.346 123.957C508.147 124.318 507.803 124.578 507.401 124.672L477.128 131.745L471.603 180.789L499.541 194.418C499.912 194.599 500.189 194.929 500.303 195.326L511.513 234.246C511.628 234.643 511.569 235.069 511.351 235.42L494.945 261.831L525.711 300.419L555.106 290.301C555.496 290.166 555.926 290.203 556.287 290.404L591.727 309.995C592.089 310.195 592.349 310.538 592.443 310.941L599.515 341.218ZM642.941 243.2C631.607 243.2 620.397 240.332 610.203 234.697C594.333 225.925 582.829 211.497 577.81 194.07C572.792 176.645 574.859 158.308 583.63 142.437C592.402 126.567 606.828 115.062 624.25 110.043C641.673 105.023 660.008 107.089 675.876 115.86C691.746 124.632 703.249 139.059 708.268 156.483C713.287 173.91 711.221 192.249 702.449 208.12C693.678 223.991 679.252 235.496 661.829 240.516C655.599 242.311 649.25 243.2 642.941 243.2ZM643.134 110.28C637.095 110.28 631.022 111.13 625.058 112.848C590.637 122.765 570.7 158.838 580.615 193.262C590.531 227.687 626.6 247.627 661.021 237.71C695.442 227.793 715.378 191.717 705.462 157.292C700.659 140.616 689.651 126.81 674.464 118.416C664.709 113.024 653.979 110.28 643.134 110.28Z" fill="#B6CDFF"/>
<path d="M175.724 183.414C175.67 183.414 175.615 183.411 175.56 183.405L148.92 180.401C148.306 180.333 147.802 179.884 147.661 179.283L143.999 163.6L126.65 154.009L111.424 159.251C110.84 159.452 110.193 159.264 109.807 158.78L93.0911 137.814C92.706 137.331 92.6665 136.658 92.9924 136.133L101.49 122.453L96.0029 103.401L81.5318 96.3412C80.9768 96.0704 80.652 95.4795 80.7211 94.8657L83.7236 68.2179C83.7927 67.6041 84.2406 67.1001 84.842 66.9597L100.522 63.2962L110.111 45.9448L104.871 30.7164C104.67 30.1323 104.859 29.485 105.341 29.0999L126.302 12.3819C126.785 11.9967 127.458 11.9573 127.982 12.2831L141.66 20.7822L160.709 15.2939L167.771 0.819525C168.042 0.264511 168.634 -0.0591041 169.246 0.008985L195.889 3.0117C196.503 3.0808 197.007 3.52901 197.147 4.13051L200.807 19.8139C207.435 23.4756 211.125 25.5153 217.582 29.0851L218.159 29.4039L233.385 24.1628C233.97 23.962 234.616 24.1502 235.001 24.6331L251.717 45.5996C252.103 46.0825 252.142 46.7556 251.816 47.2802L243.317 60.9575L248.805 80.0099L263.277 87.0718C263.832 87.3427 264.157 87.9336 264.087 88.5475L261.085 115.195C261.016 115.809 260.568 116.313 259.967 116.453L244.286 120.117C240.516 126.938 238.467 130.647 234.695 137.469L239.937 152.696C240.138 153.28 239.95 153.928 239.467 154.313L218.504 171.032C218.021 171.417 217.348 171.456 216.824 171.131L203.146 162.631L184.096 168.12L177.035 182.594C176.789 183.1 176.277 183.414 175.724 183.414ZM150.27 177.616L174.864 180.388L181.757 166.257C181.938 165.886 182.268 165.609 182.665 165.494L202.961 159.647C203.358 159.532 203.785 159.592 204.136 159.809L217.49 168.107L236.842 152.673L231.723 137.806C231.589 137.416 231.626 136.986 231.826 136.624C235.853 129.341 237.912 125.615 241.886 118.424L242.045 118.137C242.244 117.775 242.588 117.515 242.99 117.421L258.3 113.844L261.071 89.2444L246.942 82.3498C246.57 82.1687 246.293 81.8388 246.179 81.4418L240.332 61.1425C240.218 60.7455 240.277 60.3186 240.495 59.9678L248.792 46.6144L233.361 27.2592L218.495 32.3762C218.104 32.5109 217.675 32.4732 217.314 32.2734L216.17 31.6408C209.53 27.9702 205.817 25.9178 198.827 22.056C198.466 21.8563 198.205 21.5123 198.111 21.1101L194.538 5.79782L169.942 3.02576L163.048 17.1574C162.867 17.5287 162.537 17.8059 162.14 17.9202L141.844 23.7676C141.447 23.8819 141.02 23.8228 140.669 23.6048L127.316 15.3069L107.966 30.7403L113.082 45.6081C113.216 45.9988 113.179 46.4279 112.979 46.7895L102.763 65.2768C102.563 65.6383 102.219 65.8984 101.817 65.9924L86.5081 69.5689L83.7364 94.1689L97.8649 101.061C98.2362 101.242 98.5133 101.572 98.6276 101.969L104.474 122.269C104.589 122.666 104.529 123.092 104.311 123.443L96.0147 136.799L111.446 156.155L126.312 151.038C126.703 150.904 127.132 150.941 127.493 151.14L145.977 161.359C146.339 161.559 146.599 161.902 146.693 162.305L150.27 177.616ZM172.351 127.831C166.323 127.831 160.361 126.306 154.939 123.309C146.499 118.643 140.38 110.97 137.711 101.701C132.201 82.5704 143.281 62.5226 162.41 57.0111C181.539 51.5004 201.584 62.5799 207.095 81.7109C212.605 100.843 201.525 120.892 182.396 126.403C179.083 127.358 175.706 127.831 172.351 127.831ZM181.588 123.598C199.171 118.532 209.354 100.104 204.29 82.5192C199.225 64.9356 180.8 54.7519 163.218 59.8169C154.701 62.2708 147.649 67.8946 143.361 75.653C139.073 83.4114 138.063 92.375 140.516 100.893C142.97 109.412 148.593 116.465 156.351 120.753C164.108 125.042 173.071 126.051 181.588 123.598Z" fill="#B6CDFF"/>
<path d="M834.591 460.125V388.873H689.693V329.456L843.285 104.588H900.278V329.214H944.23V388.873H900.278V460.125H834.591ZM834.591 329.214V208.206L753.207 329.214H834.591Z" fill="#078262"/>
<path d="M805.226 460.125V388.873H660.328V329.456L813.92 104.588H870.913V329.214H914.865V388.873H870.913V460.125H805.226ZM805.226 329.214V208.206L723.842 329.214H805.226Z" fill="#09A17A"/>
<path d="M887.666 330.674H870.912C870.106 330.674 869.452 330.02 869.452 329.214V129.159C869.452 128.353 870.106 127.699 870.912 127.699C871.718 127.699 872.372 128.353 872.372 129.159V327.754H887.667C888.473 327.754 889.126 328.408 889.126 329.214C889.126 330.02 888.472 330.674 887.666 330.674Z" fill="white"/>
<path d="M732.708 317.487C732.428 317.487 732.145 317.407 731.895 317.239C731.226 316.789 731.049 315.882 731.499 315.213L804.014 207.391C804.464 206.722 805.371 206.545 806.039 206.994C806.708 207.444 806.886 208.351 806.436 209.02L733.921 316.842C733.639 317.261 733.178 317.487 732.708 317.487Z" fill="white"/>
<path d="M870.912 452.773C870.106 452.773 869.452 452.12 869.452 451.313V388.872C869.452 388.066 870.106 387.412 870.912 387.412C871.718 387.412 872.372 388.066 872.372 388.872V451.313C872.372 452.12 871.718 452.773 870.912 452.773Z" fill="white"/>
<path d="M239.776 460.125V388.873H94.8779V329.456L248.47 104.588H305.462V329.214H349.415V388.873H305.462V460.125H239.776ZM239.776 329.214V208.206L158.392 329.214H239.776Z" fill="#078262"/>
<path d="M604.481 152.695C602.029 148.615 599.404 144.818 596.611 141.301C577.29 116.826 550.483 104.588 516.19 104.588C481.9 104.588 455.173 116.666 436.016 140.818C412.831 170.127 401.24 218.108 401.24 284.773C401.24 352.726 411.781 399.946 432.875 426.431C453.965 452.92 481.736 466.164 516.19 466.164C550.483 466.164 577.207 454.086 596.367 429.933C603.78 420.564 610.008 409.268 615.05 396.044C625.779 367.914 631.142 331.066 631.142 285.496C631.142 226.497 622.257 182.23 604.481 152.695ZM553.141 373.897C549.596 387.424 544.605 396.806 538.169 402.037C531.728 407.27 524.402 409.886 516.19 409.886C507.98 409.886 500.693 407.313 494.337 402.157C487.974 397.004 482.703 386.66 478.518 371.12C474.331 355.583 472.24 327.041 472.24 285.496C472.24 243.952 474.572 214.407 479.242 196.852C482.781 183.328 487.773 173.948 494.214 168.715C500.653 163.484 507.98 160.866 516.19 160.866C524.402 160.866 531.685 163.484 538.046 168.715C542.974 172.772 547.253 179.928 550.878 190.182C551.928 193.151 552.925 196.383 553.864 199.872C555.487 205.897 556.796 213.88 557.788 223.814C559.358 239.5 560.145 260.06 560.145 285.496C560.145 327.041 557.808 356.507 553.141 373.897Z" fill="#078262"/>
<path d="M210.409 460.125V388.873H65.5117V329.456L219.103 104.588H276.096V329.214H320.049V388.873H276.096V460.125H210.409ZM210.409 329.214V208.206L129.025 329.214H210.409Z" fill="#09A17A"/>
<path d="M486.826 104.588C521.119 104.588 547.925 116.827 567.245 141.301C590.266 170.285 601.778 218.35 601.778 285.496C601.778 352.484 590.186 400.629 567.003 429.933C547.842 454.086 521.119 466.163 486.826 466.163C452.372 466.163 424.6 452.92 403.51 426.431C382.417 399.946 371.874 352.726 371.874 284.772C371.874 218.109 383.466 170.127 406.65 140.818C425.807 116.665 452.534 104.588 486.826 104.588ZM486.826 160.865C478.615 160.865 471.287 163.484 464.85 168.715C458.409 173.95 453.417 183.328 449.877 196.854C445.206 214.407 442.874 243.953 442.874 285.497C442.874 327.04 444.964 355.583 449.153 371.12C453.338 386.661 458.609 397.006 464.971 402.157C471.329 407.313 478.615 409.886 486.826 409.886C495.037 409.886 502.361 407.271 508.802 402.037C515.24 396.806 520.232 387.424 523.775 373.898C528.442 356.507 530.779 327.041 530.779 285.497C530.779 243.953 528.684 215.414 524.499 199.873C520.311 184.336 515.04 173.95 508.681 168.716C502.319 163.484 495.037 160.865 486.826 160.865Z" fill="#09A17A"/>
<path d="M292.851 330.674H276.097C275.29 330.674 274.637 330.02 274.637 329.214V129.159C274.637 128.353 275.29 127.699 276.097 127.699C276.903 127.699 277.556 128.353 277.556 129.159V327.754H292.851C293.657 327.754 294.311 328.408 294.311 329.214C294.311 330.02 293.657 330.674 292.851 330.674Z" fill="white"/>
<path d="M137.893 317.487C137.613 317.487 137.33 317.407 137.08 317.239C136.411 316.789 136.233 315.882 136.683 315.213L209.199 207.391C209.648 206.722 210.556 206.545 211.224 206.995C211.893 207.445 212.071 208.352 211.621 209.021L139.105 316.842C138.824 317.261 138.363 317.487 137.893 317.487Z" fill="white"/>
<path d="M276.097 452.773C275.29 452.773 274.637 452.12 274.637 451.313V388.872C274.637 388.066 275.29 387.412 276.097 387.412C276.903 387.412 277.556 388.066 277.556 388.872V451.313C277.556 452.12 276.903 452.773 276.097 452.773Z" fill="white"/>
<path d="M450.049 375.775C449.417 375.775 448.835 375.362 448.649 374.725C448.343 373.683 448.039 372.597 447.743 371.499C443.544 355.922 441.414 326.986 441.414 285.496C441.414 244.012 443.787 214.062 448.466 196.478C452.067 182.717 457.27 172.993 463.929 167.581C469.845 162.774 476.581 160.059 483.948 159.511C484.746 159.446 485.452 160.054 485.512 160.858C485.571 161.662 484.968 162.362 484.164 162.422C477.404 162.925 471.215 165.424 465.77 169.848C459.603 174.859 454.731 184.07 451.289 197.223C446.673 214.568 444.334 244.265 444.334 285.496C444.334 326.729 446.429 355.409 450.562 370.739C450.852 371.817 451.151 372.882 451.451 373.905C451.677 374.678 451.234 375.489 450.46 375.716C450.323 375.756 450.185 375.775 450.049 375.775Z" fill="white"/>
<path opacity="0.3" d="M604.482 152.695L601.041 155.459L598.767 153.841L595.351 157.534C595.677 158.039 596.016 158.527 596.36 159.007L578.768 164.961L555.116 184.129L555.98 184.78C555.975 184.783 555.561 185.154 554.868 185.838C553.938 186.76 552.501 188.25 550.878 190.182C546.183 195.762 539.903 205.041 539.609 215.006C539.526 217.857 541.488 220.372 544.279 221.078C547.389 221.867 552.047 222.918 557.789 223.814C566.104 225.111 576.698 226.091 588.173 225.5L591.105 248.588L593.612 247.977L594.343 253.025L615.051 396.045C625.78 367.915 631.143 331.066 631.143 285.497C631.143 226.498 622.258 182.23 604.482 152.695ZM572.048 204.413L577.015 200.601L577.836 201.217L584.591 197.292L586.405 211.576C579.233 208.106 572.048 204.413 572.048 204.413Z" fill="#2A65BA"/>
<path d="M383.584 418.725H24.9533C23.6095 418.725 22.5205 417.635 22.5205 416.292C22.5205 414.948 23.6098 413.858 24.9533 413.858H383.584C384.928 413.858 386.017 414.948 386.017 416.292C386.017 417.635 384.928 418.725 383.584 418.725Z" fill="#2D4651"/>
<path d="M76.9004 165.411C76.9004 165.411 84.1519 202.359 100.376 200.075C116.605 197.791 116.149 190.835 116.149 190.835C116.149 190.835 109.176 179.102 107.823 173.588C106.846 169.642 106.127 164.782 106.51 159.738L86.654 150.123L81.5704 147.661L76.9004 165.411Z" fill="#FDC8AA"/>
<path d="M85.9383 157.209C92.1219 171.869 103.344 173.538 107.823 173.586C106.846 169.641 106.128 164.781 106.51 159.736L86.654 150.122C84.785 151.055 84.2554 153.219 85.9383 157.209Z" fill="#EFA37D"/>
<path d="M157.732 241.003C157.188 242.832 156.478 244.415 155.639 245.756C151.295 252.734 143.427 253.21 135.822 247.932L135.641 244.834L135.316 239.367L131.754 238.918L125.37 238.109C125.37 238.109 125.468 239.035 125.616 240.878C125.691 241.781 125.778 242.904 125.865 244.248C125.986 246.001 126.092 248.302 126.183 251.121C127.074 278.795 126.141 356.143 114.691 449.694L91.6037 451.07L92.344 416.293L89.2955 339.863L68.1532 451.07H46.3723L55.4647 265.436L55.8652 257.88C55.8652 257.88 49.5379 257.219 49.6323 251.174C49.6439 250.562 49.6323 250.01 49.6097 249.511C49.3681 245.069 47.8043 244.796 46.924 244.373C46.8296 244.328 46.7351 244.241 46.6444 244.124C45.7983 243.021 45.1713 239.023 45.8551 236.723C46.6105 234.173 34.9005 211.977 42.2665 191.008C45.4622 181.911 52.4052 175.889 59.2425 171.986C60.3531 171.351 61.4637 170.769 62.5552 170.244C63.9718 169.56 65.3507 168.963 66.665 168.45C72.1161 166.3 76.3772 165.507 76.853 165.42L76.902 165.412V165.416C77.0494 165.763 86.595 188.031 107.36 194.409C107.363 194.405 107.363 194.405 107.367 194.405V194.401C107.45 194.065 111.318 178.866 108.16 170.082C128.4 178.866 146.69 216.268 146.69 216.268C146.69 216.268 148.012 216.423 150.301 218.588C150.301 218.588 161.132 229.669 157.732 241.003Z" fill="#F4B545"/>
<path d="M124.435 236.906C124.435 236.906 77.8818 268.683 55.4629 265.434L55.8671 257.878C55.8671 257.878 63.3766 257.991 65.9719 256.88C68.5707 255.77 118.645 233.959 118.645 233.959L124.435 236.906Z" fill="#E59D29"/>
<path d="M139.403 211.085C139.403 211.085 141.754 219.731 135.899 220.595C130.044 221.458 128.47 218.562 128.47 218.562L139.403 211.085Z" fill="#E59D29"/>
<path d="M74.2497 220.728L70.9131 211.094L85.3932 223.183L74.2497 220.728Z" fill="#E59D29"/>
<path d="M135.195 219.235L122.884 231.993L119.232 235.779C119.232 235.779 116.995 237.317 113.275 239.58C103.06 245.795 81.631 257.48 64.3871 257.877C63.0272 257.907 61.6976 257.869 60.3981 257.752C60.3981 257.752 57.6141 249.928 77.3891 230.373C77.3928 230.365 77.3966 230.362 77.3966 230.362L98.0706 226.217L99.6837 225.892L104.062 222.991L115.541 215.386L116.603 214.683C116.603 214.683 117.079 214.06 117.899 213.1C121.582 208.785 132.17 197.682 137.269 206.027C143.502 216.228 135.195 219.235 135.195 219.235Z" fill="#FDC8AA"/>
<path d="M65.5063 233.898C65.5063 233.898 52.5573 242.3 49.6071 249.509C49.3689 245.066 47.8051 244.794 46.9251 244.371C46.8306 244.326 46.7362 244.239 46.6455 244.122C46.6571 244.11 46.6606 244.103 46.6606 244.103C46.6606 244.103 58.1631 238.677 64.3279 233.373L65.5063 233.898Z" fill="#E59D29"/>
<path d="M135.196 219.234L121.688 220.594L115.542 215.385L116.603 214.682C116.603 214.682 117.079 214.058 117.899 213.099L135.196 219.234Z" fill="#EFA37D"/>
<path d="M96.7872 304.224L92.3448 416.292L89.2963 339.862C89.2322 337.47 96.7872 304.224 96.7872 304.224Z" fill="#E59D29"/>
<path d="M77.3246 142.655C80.1829 156.468 90.4729 166.015 100.308 163.98C110.142 161.944 114.135 148.401 111.277 134.588C108.419 120.775 99.7913 111.923 89.9566 113.958C80.1219 115.994 74.4664 128.842 77.3246 142.655Z" fill="#FDC8AA"/>
<path d="M87.4475 130.694C90.451 125.331 89.6917 119.194 85.7514 116.987C81.8112 114.779 76.1821 117.337 73.1786 122.699C70.1751 128.062 70.9344 134.199 74.8747 136.406C78.8149 138.614 84.444 136.056 87.4475 130.694Z" fill="#1F3A6F"/>
<path d="M121.438 120.189C122.249 112.786 116.204 106.051 107.936 105.145C99.6681 104.239 92.3084 109.505 91.4975 116.908C90.6866 124.311 96.7316 131.046 104.999 131.952C113.267 132.858 120.627 127.591 121.438 120.189Z" fill="#1F3A6F"/>
<path d="M96.214 123.269C99.5329 119.95 99.5329 114.568 96.214 111.248C92.8951 107.929 87.514 107.929 84.195 111.248C80.8761 114.568 80.8761 119.95 84.195 123.269C87.514 126.589 92.895 126.589 96.214 123.269Z" fill="#1F3A6F"/>
<path d="M81.7282 137.485C81.7282 137.485 76.1315 130.043 71.6579 133.577C67.1845 137.111 72.8117 148.29 79.7673 147.921L81.7282 137.485Z" fill="#FDC8AA"/>
<path d="M78.3687 138.023C78.3687 138.023 73.7846 135.54 73.3691 138.041C72.9536 140.542 76.0641 143.995 76.9079 144.04C77.7517 144.086 74.9351 140.099 75.3953 139.772C75.8556 139.445 78.0517 140.488 78.3687 138.023Z" fill="#EFA37D"/>
<path d="M117.861 185.222L120.175 190.275L114.792 188.764L107.365 194.408L110.259 183.238L117.861 185.222Z" fill="#E59D29"/>
<path d="M125.617 240.878C125.47 239.034 125.372 238.109 125.372 238.109L124.688 236.386H120.155L113.276 239.578L126.184 251.12C126.093 248.302 125.987 246.001 125.867 244.248C125.78 242.903 125.693 241.781 125.617 240.878Z" fill="#E59D29"/>
<path d="M106.874 168.78C106.874 168.78 107.177 194.66 107.366 194.408C107.555 194.156 114.04 185.781 114.04 185.781C114.04 185.781 119.895 186.474 119.958 186.222C120.02 185.97 113.359 172.936 106.874 168.78Z" fill="white"/>
<path d="M122.887 231.991L119.234 235.777C119.234 235.777 116.997 237.315 113.277 239.578L98.0723 226.215L99.6853 225.89L104.063 222.988C108.728 225.13 117.228 229.211 122.887 231.991Z" fill="#EFA37D"/>
<path d="M149.801 237.855C148.309 242.796 145.268 245.324 142.404 246.612C138.99 248.154 135.824 247.931 135.824 247.931L117.753 236.907C117.677 236.861 117.636 236.839 117.636 236.839L99.6855 225.89L91.3487 227.563L77.3986 230.359L74.252 220.725C74.252 220.725 74.422 220.544 74.7431 220.23C77.0359 218.005 87.1143 209.043 99.1114 211.031C112.782 213.297 140.985 220.725 140.985 220.725C140.985 220.725 153.072 227.023 149.801 237.855Z" fill="#FDC8AA"/>
<path d="M91.3487 227.564L77.3986 230.359L74.252 220.725C74.252 220.725 74.422 220.544 74.7431 220.23L78.6489 228.501L91.3487 227.564Z" fill="#EFA37D"/>
<path d="M155.64 245.756C151.296 252.734 143.428 253.21 135.824 247.932L135.643 244.834C142.835 247.169 150.59 248.453 155.64 245.756Z" fill="#E59D29"/>
<path d="M64.3881 257.875C63.0283 257.905 61.6986 257.868 60.3991 257.75C60.3991 257.75 57.6151 249.926 77.3863 230.371C76.967 230.843 62.7336 246.889 64.3881 257.875Z" fill="#EFA37D"/>
<path d="M142.404 246.613C138.99 248.154 135.824 247.932 135.824 247.932L117.753 236.907C119.067 237.651 131.272 244.46 142.404 246.613Z" fill="#EFA37D"/>
<path d="M107.359 194.409C99.2262 197.45 84.9249 188.53 84.9249 188.53L74.7031 195.893L62.5547 170.244C63.9713 169.56 65.3502 168.963 66.6645 168.45C72.1156 166.3 76.3766 165.507 76.8524 165.42L76.9014 165.412V165.416C77.0489 165.764 86.5945 188.031 107.359 194.409Z" fill="#E59D29"/>
<path d="M107.364 194.407C99.2767 195.162 84.9225 186.473 84.9225 186.473L74.8481 190.817L62.5562 170.242L60.9658 167.582L76.8538 165.418L76.8992 165.41L76.903 165.414C77.0502 165.762 86.5958 188.033 107.364 194.407Z" fill="white"/>
<path d="M50.9189 272.156C51.9243 272.095 79.9599 269.183 79.9599 269.183L77.2505 277.486L47.7715 279.289L50.9189 272.156Z" fill="white"/>
<path d="M104.402 268.232L127.635 272.258L130.511 279.978L105.267 275.629L104.402 268.232Z" fill="white"/>
<path d="M79.9599 269.183L77.2506 277.486L54.7422 278.863V282.128L81.0298 281.467L79.9599 269.183Z" fill="#E59D29"/>
<path d="M104.403 268.232L104.092 279.231L126.335 283.731L126.388 279.268L105.217 275.421L104.403 268.232Z" fill="#E59D29"/>
<path d="M89.6897 457.177C89.6762 457.735 89.6963 458.273 89.7437 458.771C90.0068 461.41 91.1882 463.213 93.7403 463.531C96.7782 463.9 138.802 464.766 140.402 462.775C140.922 462.137 141.084 461.121 140.915 459.996C140.564 457.645 138.721 454.837 135.515 454.12C134.239 453.832 132.193 452.805 129.83 451.391C123.471 447.587 114.823 441.024 112.724 438.753C110.523 436.363 108.518 441.024 106.486 444.998C105.865 446.203 105.251 447.348 104.623 448.215C101.923 451.949 95.9346 449.33 95.9346 449.33C86.8206 443.982 89.7709 453.692 89.6897 457.177Z" fill="#1F3A6F"/>
<path d="M53.196 465.805C68.0351 465.74 74.1928 466.36 71.5506 460.779C71.5129 460.703 71.4752 460.628 71.4373 460.547C68.7573 455.202 68.3496 453.125 68.4898 448.492C68.5006 448.071 68.533 447.64 68.5923 447.176C69.2771 441.638 63.7698 440.723 63.7698 440.723C63.7698 440.723 51.5621 436.931 48.2946 443.64C47.7984 444.654 47.3887 445.603 47.0435 446.493C45.0753 451.503 44.9944 454.744 42.6167 457.931C42.2823 458.379 41.9587 458.853 41.6839 459.344C39.9963 462.359 40.293 465.854 53.196 465.805Z" fill="#1F3A6F"/>
<path d="M92.9473 152.654L103.89 152.344C103.89 152.344 103.719 159.528 99.0073 159.596C94.2963 159.664 93.1955 155.866 92.9473 152.654Z" fill="white"/>
<path d="M446.581 468.715C445.087 468.632 443.589 468.496 442.08 468.296L405.867 463.508C396.685 462.296 388.531 458.174 382.065 452.174C372.446 443.25 366.559 430.165 366.559 416.291C366.559 404.685 370.675 393.639 377.652 385.113C384.42 376.836 393.873 370.938 404.869 369.22C405.2 369.167 405.531 369.118 405.867 369.074L442.08 364.286C443.589 364.086 445.087 363.95 446.581 363.867C440.149 369.215 435.337 390.661 435.337 416.291C435.337 441.926 440.149 463.367 446.581 468.715Z" fill="#09A17A"/>
<path opacity="0.3" d="M446.581 468.715C445.087 468.632 443.588 468.496 442.08 468.297L405.866 463.508C396.685 462.296 388.531 458.175 382.064 452.175C404.922 431.055 406.353 392.218 404.869 369.22C405.2 369.167 405.531 369.118 405.866 369.074L442.08 364.286C443.588 364.086 445.087 363.95 446.581 363.867C440.149 369.215 435.336 390.661 435.336 416.291C435.336 441.927 440.148 463.367 446.581 468.715Z" fill="#2A65BA"/>
<path d="M412.229 416.291C412.229 445.953 418.668 469.998 426.611 469.998H449.719V362.583H426.611C418.668 362.583 412.229 386.629 412.229 416.291Z" fill="#B6CDFF"/>
<path d="M449.719 469.998C457.662 469.998 464.101 445.953 464.101 416.291C464.101 386.629 457.662 362.583 449.719 362.583C441.777 362.583 435.338 386.629 435.338 416.291C435.338 445.953 441.777 469.998 449.719 469.998Z" fill="white"/>
<path d="M452.867 468.705C451.85 469.557 450.799 469.999 449.719 469.999C448.639 469.999 447.588 469.557 446.581 468.715C448.692 468.827 450.794 468.827 452.867 468.705Z" fill="white"/>
<path d="M480.913 397.322H449.723C447.987 397.322 446.58 400.212 446.58 403.776C446.58 407.341 447.987 410.231 449.723 410.231H480.913C482.648 410.231 484.055 407.341 484.055 403.776C484.055 400.212 482.648 397.322 480.913 397.322Z" fill="#1F3A6F"/>
<path d="M480.913 429.962H449.723C447.987 429.962 446.58 432.852 446.58 436.416C446.58 439.981 447.987 442.87 449.723 442.87H480.913C482.648 442.87 484.055 439.981 484.055 436.416C484.055 432.852 482.648 429.962 480.913 429.962Z" fill="#1F3A6F"/>
<path opacity="0.3" d="M384.556 202.357C431.351 202.357 469.286 164.416 469.286 117.614C469.286 70.8118 431.351 32.8711 384.556 32.8711C337.761 32.8711 299.826 70.8118 299.826 117.614C299.826 164.416 337.761 202.357 384.556 202.357Z" fill="#2A65BA"/>
<path d="M377.847 193.575C424.642 193.575 462.577 155.634 462.577 108.832C462.577 62.0296 424.642 24.0889 377.847 24.0889C331.052 24.0889 293.117 62.0296 293.117 108.832C293.117 155.634 331.052 193.575 377.847 193.575Z" fill="#61D14A"/>
<path d="M381.573 165.78C377.854 165.581 374.767 164.102 372.314 161.345C369.859 158.588 368.732 155.373 368.928 151.701C369.127 147.982 370.593 144.894 373.327 142.438C376.059 139.983 379.285 138.855 383.005 139.054C386.724 139.254 389.811 140.72 392.267 143.453C394.721 146.187 395.849 149.414 395.65 153.133C395.453 156.804 393.988 159.881 391.254 162.359C388.519 164.839 385.292 165.98 381.573 165.78ZM374.956 123.013L375.97 58.7119L398.581 59.9235L392.428 123.95L374.956 123.013Z" fill="#49AF2C"/>
<path d="M377.848 162.14C374.122 162.14 370.961 160.828 368.364 158.206C365.766 155.584 364.468 152.434 364.468 148.758C364.468 145.033 365.766 141.871 368.364 139.273C370.961 136.675 374.123 135.376 377.848 135.376C381.572 135.376 384.733 136.675 387.331 139.273C389.928 141.871 391.228 145.033 391.228 148.758C391.228 152.434 389.929 155.584 387.331 158.206C384.733 160.828 381.572 162.14 377.848 162.14ZM368.952 119.788L366.526 55.5244H389.169L386.449 119.788H368.952Z" fill="white"/>
<path d="M932.081 418.725H764.533C763.19 418.725 762.101 417.635 762.101 416.292C762.101 414.948 763.19 413.858 764.533 413.858H932.081C933.425 413.858 934.514 414.948 934.514 416.292C934.514 417.635 933.425 418.725 932.081 418.725Z" fill="#2D4651"/>
<path d="M692.59 468.715C694.084 468.632 695.582 468.496 697.091 468.297L733.304 463.508C742.485 462.296 750.64 458.175 757.106 452.175C766.725 443.25 772.612 430.165 772.612 416.291C772.612 404.685 768.496 393.639 761.519 385.113C754.751 376.836 745.298 370.938 734.302 369.22C733.971 369.167 733.64 369.118 733.304 369.074L697.091 364.286C695.583 364.086 694.084 363.95 692.59 363.867C699.022 369.215 703.834 390.661 703.834 416.291C703.834 441.927 699.022 463.367 692.59 468.715Z" fill="#09A17A"/>
<path opacity="0.3" d="M692.59 468.715C694.084 468.632 695.582 468.496 697.091 468.297L733.304 463.508C742.485 462.296 750.64 458.175 757.106 452.175C734.248 431.055 732.818 392.218 734.301 369.22C733.971 369.167 733.64 369.118 733.304 369.074L697.091 364.286C695.582 364.086 694.084 363.95 692.59 363.867C699.022 369.215 703.834 390.661 703.834 416.291C703.834 441.927 699.022 463.367 692.59 468.715Z" fill="#2A65BA"/>
<path d="M726.941 416.291C726.941 445.953 720.502 469.998 712.559 469.998H689.451V362.583H712.559C720.502 362.583 726.941 386.629 726.941 416.291Z" fill="#B6CDFF"/>
<path d="M689.451 469.998C697.393 469.998 703.832 445.953 703.832 416.291C703.832 386.629 697.393 362.583 689.451 362.583C681.508 362.583 675.069 386.629 675.069 416.291C675.069 445.953 681.508 469.998 689.451 469.998Z" fill="white"/>
<path d="M686.304 468.705C687.321 469.557 688.371 469.999 689.452 469.999C690.532 469.999 691.583 469.557 692.59 468.715C690.478 468.827 688.376 468.827 686.304 468.705Z" fill="white"/>
<path d="M689.447 442.87C691.183 442.87 692.59 439.981 692.59 436.416C692.59 432.852 691.183 429.962 689.447 429.962C687.711 429.962 686.304 432.852 686.304 436.416C686.304 439.981 687.711 442.87 689.447 442.87Z" fill="#1F3A6F"/>
<path d="M689.447 410.231C691.183 410.231 692.59 407.341 692.59 403.776C692.59 400.212 691.183 397.322 689.447 397.322C687.711 397.322 686.304 400.212 686.304 403.776C686.304 407.341 687.711 410.231 689.447 410.231Z" fill="#1F3A6F"/>
<path d="M643.015 335.508L655.131 350.578L643.015 359.123L633.384 345.917L643.015 335.508Z" fill="#FDC8AA"/>
<path d="M641.577 347.316L653.111 357.686L647.985 361.531L652.449 379.595C652.932 381.548 652.28 383.624 650.728 384.904C648.929 386.388 646.41 387.386 644.257 384.253C640.412 378.66 623.228 348.481 623.228 348.481L637.208 338.81L641.577 347.316Z" fill="#15315E"/>
<path d="M646.005 424.804L645.872 447.417L632.462 448.693L626.898 425.736L646.005 424.804Z" fill="#FDC8AA"/>
<path d="M697.367 311.584L654.818 354.617L645.594 343.34L639.441 335.82L646.642 326.897L652.86 319.193L668.726 299.542L664.26 295.183L637.064 268.621L609.306 241.514L654.818 229.395L698.846 285.262C705.064 293.152 704.431 304.44 697.367 311.584Z" fill="#1F3A6F"/>
<path d="M672.977 303.796L652.861 319.192L668.725 299.54L672.977 303.796Z" fill="#072542"/>
<path d="M664.261 295.182L637.064 268.618L638.549 253.864L664.261 295.182Z" fill="#072542"/>
<path d="M646.641 326.896C646.42 330.399 645.973 337.392 645.593 343.339L639.44 335.818L646.641 326.896Z" fill="#072542"/>
<path d="M647.986 428.415L625.153 430.746L599.367 251.035L598.47 244.777L602.692 242.905L638.432 227.063L638.836 235.543L638.921 237.338L647.986 428.415Z" fill="#1F3A6F"/>
<path d="M627.742 442.08L648.229 434.228L646.555 445.185L653.223 459.427C653.223 459.427 662.693 460.516 662.217 469.436L631.253 463.738L631.31 448.105L627.742 442.08Z" fill="#15315E"/>
<path d="M651.634 232.936L638.921 237.337L599.367 251.033L598.47 244.775L602.692 242.903L638.836 235.542L651.634 232.936Z" fill="#072542"/>
<path d="M673.678 226.389C673.678 226.389 663.739 227.18 656.212 213.896V201.895H672.685L673.678 226.389Z" fill="#EFA37D"/>
<path d="M602.208 155.869L583.791 162.161L560.141 181.504L582.859 198.75L589.616 194.788L596.129 246.555L658.471 231.259L660.328 173.52L631.325 154.82L602.208 155.869Z" fill="#F4B545"/>
<path d="M621.19 163.325C613.267 163.325 604.296 154.004 604.296 154.004L609.83 149.518V134.885L626.779 146.314L628.024 152.12L628.178 152.839C628.178 152.839 629.11 163.325 621.19 163.325Z" fill="#FDC8AA"/>
<path d="M628.026 152.12C625.969 153.666 617.741 158.346 609.831 141.693V134.885L626.78 146.314L628.026 152.12Z" fill="#EFA37D"/>
<path d="M607.86 130.459C609.444 141.878 617.319 150.22 625.449 149.092C633.58 147.964 637.568 137.136 635.984 125.717C634.4 114.297 627.843 106.611 619.713 107.74C611.583 108.868 606.276 119.04 607.86 130.459Z" fill="#FDC8AA"/>
<path d="M616.777 121.23C619.517 117.019 619.23 111.973 616.136 109.959C613.042 107.945 608.312 109.727 605.573 113.938C602.833 118.149 603.121 123.195 606.215 125.208C609.309 127.222 614.038 125.441 616.777 121.23Z" fill="#1F3A6F"/>
<path d="M645.092 114.496C646.154 108.502 641.588 102.682 634.894 101.495C628.2 100.309 621.913 104.206 620.851 110.199C619.789 116.193 624.354 122.014 631.048 123.2C637.742 124.386 644.03 120.49 645.092 114.496Z" fill="#1F3A6F"/>
<path d="M646.277 175.639C646.277 175.639 640.219 184.028 637.889 181.387C635.559 178.746 645.345 164.453 648.53 164.219C651.714 163.986 664.918 172.687 664.918 172.687L685.625 211.61C686.577 213.399 686.859 215.48 686.357 217.442C685.41 221.138 682.553 226.365 673.967 226.365C673.967 226.365 667.908 227.53 665.229 213.897C662.549 200.264 657.773 178.008 657.773 178.008C657.773 178.008 653.656 180.61 646.277 175.639Z" fill="#FDC8AA"/>
<path d="M626.373 112.432C627.469 108.755 625.378 104.886 621.702 103.79C618.025 102.694 614.157 104.786 613.061 108.463C611.965 112.139 614.056 116.009 617.733 117.105C621.409 118.201 625.277 116.109 626.373 112.432Z" fill="#1F3A6F"/>
<path d="M611.73 126.481C611.73 126.481 607.568 120.109 603.729 122.749C599.889 125.389 603.874 134.81 609.566 134.885L611.73 126.481Z" fill="#FDC8AA"/>
<path d="M608.961 126.737C608.961 126.737 605.357 124.464 604.883 126.481C604.409 128.498 606.759 131.482 607.445 131.565C608.13 131.648 606.049 128.244 606.442 128.002C606.835 127.761 608.569 128.73 608.961 126.737Z" fill="#EFA37D"/>
<path d="M622.354 162.102L628.025 168.627C628.025 168.627 632.257 161.869 632.141 154.528L627.867 151.382C627.867 151.382 626.898 159.538 622.354 162.102Z" fill="white"/>
<path d="M603.791 150.936L619.248 162.044L615.597 169.191C615.597 169.191 606.432 164.064 600.374 154.664L603.791 150.936Z" fill="white"/>
<path d="M589.617 194.787L596.492 189.661L592.224 215.512L589.617 194.787Z" fill="#E59D29"/>
<path d="M631.442 186.163H676.995L659.403 214.828H616.255L631.442 186.163Z" fill="#1F3A6F"/>
<path d="M659.404 214.828H609.307V220.072H659.404V214.828Z" fill="#1F3A6F"/>
<path d="M627.635 221.548C622.043 227.375 601.383 222.559 601.383 222.559C578.652 225.269 557.973 221.011 549.302 218.794C546.512 218.08 544.55 215.542 544.633 212.663C545.027 199.127 556.276 186.841 559.893 183.228C560.591 182.533 561.006 182.158 561.006 182.158L582.038 198.126L577.073 201.973C577.073 201.973 591.443 209.43 599.83 213.159C608.22 216.886 616.373 209.586 617.228 213.78C618.083 217.975 608.761 215.567 611.713 218.519C614.664 221.471 633.227 215.721 627.635 221.548Z" fill="#FDC8AA"/>
<path d="M582.038 198.126L577.072 201.973C577.072 201.973 567.889 201.078 561.19 202.886C561.19 202.886 567.831 198.554 577.694 198.787L559.893 183.228C560.59 182.533 561.005 182.158 561.005 182.158L582.038 198.126Z" fill="#EFA37D"/>
<path d="M618.928 139.09L629.871 138.78C629.871 138.78 629.699 145.965 624.988 146.033C620.276 146.101 619.176 142.303 618.928 139.09Z" fill="white"/>
<path d="M559.45 437.712C562.831 429.709 575.819 410.924 600.106 405.098C604.08 404.145 612.904 402.028 616.102 404.845C622.456 410.442 594.092 432.275 597.773 435.184C601.688 438.277 635.09 415.267 640.762 419.003C643.426 420.758 617.726 435.033 618.435 454.399C618.595 458.774 620.047 462.413 621.434 465.018H552.058C552.058 465.018 551.119 457.433 559.45 437.712Z" fill="#61D14A"/>
</svg>
