<svg width="170" height="37" viewBox="0 0 170 37" fill="none" xmlns="http://www.w3.org/2000/svg">
<path d="M4.16588 20.52V14.28H22.0859V20.52H4.16588ZM17.7019 6.6H24.7419V29H17.7019V6.6ZM2.66188 6.6H9.70188V29H2.66188V6.6ZM33.8964 24.36C33.8964 24.6373 33.9604 24.872 34.0884 25.064C34.2377 25.2347 34.419 25.3733 34.6324 25.48C34.867 25.5653 35.1124 25.608 35.3684 25.608C35.7737 25.608 36.1577 25.5227 36.5204 25.352C36.9044 25.16 37.2137 24.872 37.4484 24.488C37.7044 24.0827 37.8324 23.56 37.8324 22.92L38.3444 24.84C38.3444 25.7787 38.1097 26.5893 37.6404 27.272C37.171 27.9333 36.531 28.4453 35.7204 28.808C34.9097 29.1493 33.9924 29.32 32.9684 29.32C32.0084 29.32 31.123 29.1493 30.3124 28.808C29.5017 28.4667 28.851 27.9547 28.3604 27.272C27.8697 26.568 27.6244 25.7147 27.6244 24.712C27.6244 23.304 28.115 22.2053 29.0964 21.416C30.099 20.6053 31.539 20.2 33.4164 20.2C34.1844 20.2 34.9204 20.264 35.6244 20.392C36.3497 20.52 36.9897 20.7013 37.5444 20.936C38.1204 21.1493 38.5684 21.4267 38.8884 21.768V24.296C38.5257 23.976 38.035 23.72 37.4164 23.528C36.819 23.336 36.2004 23.24 35.5604 23.24C35.155 23.24 34.8244 23.2827 34.5684 23.368C34.3337 23.4533 34.163 23.5813 34.0564 23.752C33.9497 23.9013 33.8964 24.104 33.8964 24.36ZM30.6644 19.464L28.7764 15.432C29.8004 15.0267 30.9524 14.6533 32.2324 14.312C33.5337 13.9707 34.8884 13.8 36.2964 13.8C37.683 13.8 38.9417 13.992 40.0724 14.376C41.203 14.76 42.099 15.3253 42.7604 16.072C43.4217 16.7973 43.7524 17.6933 43.7524 18.76V29H37.8324V20.296C37.8324 20.0187 37.7897 19.7627 37.7044 19.528C37.619 19.2933 37.4804 19.0907 37.2884 18.92C37.0964 18.728 36.8404 18.5893 36.5204 18.504C36.2004 18.3973 35.8164 18.344 35.3684 18.344C34.771 18.344 34.1417 18.4187 33.4804 18.568C32.819 18.696 32.2324 18.856 31.7204 19.048C31.2084 19.2187 30.8564 19.3573 30.6644 19.464ZM63.9231 14.28L54.3231 36.04H48.2431L51.5391 28.36L44.7231 14.28H51.4431L56.2431 26.28H52.8831L57.6831 14.28H63.9231ZM63.9444 21.64C63.9444 20.04 64.3284 18.664 65.0964 17.512C65.8644 16.36 66.9204 15.4747 68.2644 14.856C69.6084 14.2373 71.1337 13.928 72.8404 13.928C74.547 13.928 76.0724 14.2373 77.4164 14.856C78.7604 15.4747 79.8164 16.36 80.5844 17.512C81.3524 18.664 81.7364 20.04 81.7364 21.64C81.7364 23.2187 81.3524 24.584 80.5844 25.736C79.8164 26.888 78.7604 27.7733 77.4164 28.392C76.0724 29.0107 74.547 29.32 72.8404 29.32C71.1337 29.32 69.6084 29.0107 68.2644 28.392C66.9204 27.7733 65.8644 26.888 65.0964 25.736C64.3284 24.584 63.9444 23.2187 63.9444 21.64ZM70.3764 21.64C70.3764 22.2373 70.4937 22.7387 70.7284 23.144C70.963 23.5493 71.2617 23.8587 71.6244 24.072C72.0084 24.264 72.4137 24.36 72.8404 24.36C73.267 24.36 73.6617 24.264 74.0244 24.072C74.4084 23.8587 74.7177 23.5493 74.9524 23.144C75.187 22.7387 75.3044 22.2373 75.3044 21.64C75.3044 21.0427 75.187 20.5413 74.9524 20.136C74.7177 19.7307 74.4084 19.4213 74.0244 19.208C73.6617 18.9947 73.267 18.888 72.8404 18.888C72.4137 18.888 72.0084 18.9947 71.6244 19.208C71.2617 19.4213 70.963 19.7307 70.7284 20.136C70.4937 20.5413 70.3764 21.0427 70.3764 21.64ZM81.7544 14.28H88.1544L90.8424 20.584L95.1944 13.16L99.5464 20.584L102.234 14.28H108.634L100.314 29.8L95.1944 22.248L90.0744 29.8L81.7544 14.28ZM109.741 4.04H115.981V29H109.741V4.04Z" fill="#242425"/>
<rect x="126" y="5.5" width="24" height="24" rx="11.9556" fill="#09A17A"/>
<circle cx="137.955" cy="17.5002" r="4.88889" fill="#242425" stroke="white" stroke-width="0.977777"/>
<rect x="146" y="5.50012" width="24" height="24" rx="11.9556" fill="#09A17A"/>
<circle cx="157.955" cy="17.5003" r="4.88889" fill="#242425" stroke="white" stroke-width="0.977777"/>
<path fill-rule="evenodd" clip-rule="evenodd" d="M148.045 24.1671C149.493 22.3338 150.357 20.0181 150.357 17.5006C150.357 14.9831 149.493 12.6674 148.045 10.8341C146.597 12.6674 145.732 14.9831 145.732 17.5006C145.732 20.0181 146.597 22.3338 148.045 24.1671Z" fill="#242425"/>
</svg>
