<svg width="823" height="549" viewBox="0 0 823 549" fill="none" xmlns="http://www.w3.org/2000/svg">
<path d="M320.597 68.1641C320.548 68.2379 320.493 68.3077 320.432 68.3727L319.917 68.9436C319.478 69.4597 318.819 70.1734 317.941 71.1396C315.547 73.9901 313.455 77.081 311.698 80.3628C309.001 85.4028 307.341 90.932 306.814 96.6242C306.197 103.836 307.326 111.09 310.106 117.772L310.194 117.98L309.975 118.046C295.667 122.193 283.008 130.703 273.763 142.389C270.194 146.861 267.194 151.759 264.83 156.97L264.765 157.124L264.6 157.069C261.668 156.126 258.656 155.45 255.602 155.049C254.153 154.829 252.716 154.752 251.333 154.654C249.951 154.555 248.579 154.566 247.273 154.654C242.719 154.796 238.204 155.534 233.842 156.85C231.025 157.697 228.283 158.777 225.645 160.078C224.723 160.528 224.054 160.934 223.582 161.176L223.044 161.461C222.923 161.516 222.857 161.549 222.857 161.538L223.033 161.428L223.549 161.121C224.01 160.868 224.646 160.451 225.59 160.023C228.216 158.686 230.956 157.584 233.776 156.729C238.151 155.381 242.686 154.62 247.262 154.467C248.579 154.39 249.94 154.467 251.344 154.467C252.749 154.467 254.186 154.632 255.646 154.851C258.727 155.237 261.765 155.91 264.721 156.861L264.479 156.959C266.843 151.715 269.847 146.784 273.423 142.279C282.723 130.514 295.47 121.956 309.876 117.805L309.744 118.079C306.94 111.338 305.81 104.018 306.452 96.745C307.013 91.0421 308.719 85.5111 311.467 80.4836C313.245 77.1956 315.379 74.1136 317.832 71.2934C318.677 70.3052 319.401 69.6024 319.862 69.0974L320.388 68.5484L320.597 68.1641Z" fill="#E0E0E0"/>
<path d="M222.134 68.1641C222.2 68.2545 222.258 68.3499 222.309 68.4495L222.781 69.306C223.209 70.0746 223.802 71.1836 224.57 72.6C226.117 75.4658 228.312 79.6272 230.978 84.7988C236.322 95.1419 243.499 109.537 250.994 125.633C258.488 141.73 264.875 156.498 269.341 167.248C271.536 172.617 273.357 176.987 274.553 180.006C275.146 181.511 275.651 182.674 275.925 183.498C276.068 183.882 276.188 184.179 276.276 184.409C276.325 184.51 276.358 184.617 276.375 184.728C276.375 184.728 276.32 184.629 276.232 184.42C276.145 184.212 276.002 183.904 275.848 183.531L274.4 180.072L269.056 167.368C264.524 156.652 258.082 141.917 250.599 125.82C243.115 109.723 235.927 95.3176 230.704 84.9415C228.059 79.7809 225.92 75.5975 224.416 72.6768L222.704 69.3828C222.529 69.0095 222.386 68.724 222.276 68.5044C222.221 68.3943 222.174 68.2806 222.134 68.1641Z" fill="#E0E0E0"/>
<path d="M340.174 68.3287H339.571H337.793H330.967L305.828 68.4056L222.562 68.4714L222.661 68.0542L225.042 69.3059C254.494 84.6779 280.863 99.1825 299.847 109.855C309.339 115.191 316.987 119.55 322.266 122.592L328.323 126.116L329.903 127.039C330.254 127.247 330.43 127.368 330.43 127.368L329.881 127.072L328.279 126.182L322.178 122.746C316.856 119.759 309.185 115.444 299.693 110.13C280.677 99.5229 254.286 85.0952 224.844 69.6902L222.463 68.4385L221.662 68.0762H222.54L305.806 68.142L330.946 68.2079H337.771H339.549C339.977 68.3067 340.174 68.3287 340.174 68.3287Z" fill="#E0E0E0"/>
<path d="M222.857 142.422C223.223 142.13 223.612 141.869 224.021 141.642C224.48 141.341 224.957 141.066 225.447 140.818C226.018 140.533 226.643 140.149 227.389 139.852C228.188 139.478 229.005 139.145 229.836 138.853C230.786 138.499 231.753 138.195 232.733 137.942C234.982 137.353 237.283 136.985 239.603 136.844C241.923 136.753 244.246 136.893 246.538 137.261C247.536 137.422 248.525 137.634 249.501 137.898C250.358 138.107 251.204 138.36 252.036 138.655C252.804 138.886 253.462 139.204 254.066 139.446C254.575 139.646 255.073 139.874 255.558 140.127C255.986 140.315 256.397 140.539 256.787 140.796C256.341 140.654 255.904 140.482 255.481 140.28C255.075 140.094 254.57 139.874 253.967 139.666C253.363 139.457 252.705 139.16 251.937 138.952C251.109 138.672 250.266 138.438 249.413 138.249C248.443 138.002 247.462 137.804 246.472 137.656C244.207 137.314 241.914 137.189 239.625 137.283C237.334 137.408 235.06 137.746 232.832 138.293C231.812 138.568 230.846 138.831 229.957 139.16C229.068 139.49 228.256 139.786 227.521 140.094C226.786 140.401 226.138 140.742 225.557 141.005C224.975 141.269 224.46 141.532 224.108 141.752C223.712 142.011 223.293 142.235 222.857 142.422Z" fill="#E0E0E0"/>
<path d="M258.817 143.201C258.803 143.008 258.803 142.813 258.817 142.619C258.817 142.246 258.817 141.675 258.817 140.962C258.915 138.919 259.201 136.89 259.673 134.901C260.368 131.942 261.441 129.086 262.867 126.402C264.601 123.103 266.854 120.104 269.538 117.519C274.482 112.849 280.665 109.7 287.348 108.45C289.356 108.068 291.395 107.876 293.438 107.879C293.99 107.85 294.543 107.85 295.095 107.879C295.288 107.855 295.484 107.855 295.677 107.879C295.483 107.893 295.289 107.893 295.095 107.879C294.722 107.879 294.162 107.879 293.438 107.879C287.21 108.01 281.128 109.796 275.817 113.055C270.507 116.314 266.158 120.928 263.218 126.424C261.777 129.069 260.671 131.883 259.926 134.802C259.43 136.772 259.103 138.782 258.949 140.808C258.872 141.521 258.872 142.081 258.839 142.455C258.859 142.704 258.852 142.954 258.817 143.201Z" fill="#E0E0E0"/>
<path d="M301.767 68.1641C301.721 68.2977 301.654 68.4236 301.57 68.5374L300.933 69.5475C300.648 69.9867 300.297 70.5138 299.946 71.1616C299.595 71.8094 299.134 72.5121 298.739 73.3576C298.344 74.2031 297.85 75.0815 297.433 76.0916C297.016 77.1018 296.588 78.1778 296.171 79.3307C294.42 84.353 293.646 89.6638 293.888 94.9772C293.965 96.196 294.02 97.3599 294.185 98.4359C294.349 99.512 294.481 100.511 294.646 101.422C294.81 102.334 295.03 103.146 295.183 103.871C295.337 104.596 295.524 105.2 295.666 105.694L295.995 106.792C296.039 106.927 296.065 107.067 296.072 107.209C296.006 107.086 295.951 106.957 295.908 106.825L295.502 105.727C295.337 105.233 295.128 104.629 294.953 103.904C294.777 103.179 294.503 102.389 294.349 101.466C294.196 100.544 293.943 99.5559 293.823 98.4579C293.702 97.3599 293.57 96.207 293.493 94.9772C293.364 92.3 293.485 89.6165 293.856 86.9618C294.259 84.313 294.906 81.7071 295.787 79.177C296.226 78.0131 296.632 76.9151 297.104 75.883C297.576 74.8509 298.025 73.9725 298.464 73.149C298.903 72.3255 299.364 71.6228 299.737 70.953C300.074 70.4066 300.441 69.8788 300.835 69.3719L301.537 68.4056C301.607 68.3194 301.685 68.2386 301.767 68.1641Z" fill="#E0E0E0"/>
<path d="M280.643 68.1641C280.414 68.4996 280.153 68.8122 279.864 69.0974C279.142 69.9247 278.465 70.7896 277.834 71.6886C276.911 73.0168 276.134 74.4416 275.519 75.9379C274.782 77.7786 274.316 79.7167 274.136 81.6914C273.811 85.2929 274.299 88.9213 275.563 92.3091C275.945 93.3356 276.392 94.3368 276.901 95.3066C277.108 95.6602 277.291 96.027 277.45 96.4046C277.186 96.0964 276.954 95.7616 276.759 95.4054C276.181 94.4576 275.686 93.4621 275.277 92.4299C273.895 89.0181 273.353 85.3238 273.697 81.6585C274.032 77.9755 275.393 74.4604 277.626 71.513C278.29 70.6151 279.024 69.7707 279.82 68.9876C280.067 68.6865 280.342 68.4106 280.643 68.1641Z" fill="#E0E0E0"/>
<path d="M248.283 123.734C248.273 123.591 248.273 123.448 248.283 123.305C248.283 122.976 248.415 122.57 248.491 122.087C248.568 121.603 248.766 120.923 248.941 120.176C249.117 119.429 249.38 118.595 249.731 117.706C251.413 112.953 254.084 108.612 257.566 104.969C261.627 100.73 266.345 97.7659 270.12 96.9533C271.615 96.5965 273.17 96.574 274.674 96.8875C275.078 96.986 275.474 97.1144 275.859 97.2718C275.997 97.3162 276.127 97.383 276.243 97.4694C276.243 97.4694 275.683 97.2608 274.641 97.0522C273.158 96.8122 271.642 96.8795 270.186 97.2498C266.477 98.1172 261.901 101.082 257.885 105.276C254.444 108.879 251.768 113.14 250.017 117.804C249.655 118.694 249.424 119.528 249.172 120.242C248.919 120.956 248.788 121.603 248.656 122.12C248.524 122.636 248.448 122.998 248.371 123.316C248.366 123.459 248.336 123.601 248.283 123.734Z" fill="#E0E0E0"/>
<path d="M222.572 123.426C222.854 123.225 223.156 123.052 223.472 122.91C224.309 122.494 225.17 122.127 226.051 121.812C227.36 121.335 228.707 120.967 230.078 120.714C231.763 120.389 233.475 120.227 235.192 120.231C238.308 120.271 241.391 120.881 244.288 122.032C245.167 122.375 246.025 122.771 246.856 123.218C247.167 123.361 247.461 123.538 247.734 123.745C247.734 123.821 246.406 123.13 244.19 122.317C238.383 120.167 232.009 120.105 226.161 122.142C223.922 122.833 222.616 123.503 222.572 123.426Z" fill="#E0E0E0"/>
<path d="M222.857 106.056C222.857 106.056 223.011 105.869 223.34 105.584C223.815 105.188 224.314 104.822 224.833 104.486C226.546 103.373 228.463 102.611 230.473 102.246C232.483 101.88 234.546 101.917 236.541 102.356C237.145 102.478 237.739 102.643 238.319 102.85C238.725 102.992 238.955 103.091 238.944 103.124C238.933 103.157 238.001 102.916 236.486 102.663C234.521 102.331 232.515 102.331 230.55 102.663C228.581 103.048 226.69 103.756 224.953 104.76C223.669 105.529 222.901 106.122 222.857 106.056Z" fill="#E0E0E0"/>
<path d="M260.069 86.1055C260.069 86.1933 258.587 86.3909 256.316 87.2035C255.693 87.4173 255.081 87.6629 254.483 87.9391C253.767 88.2343 253.068 88.5678 252.387 88.9383C250.883 89.7847 249.462 90.7699 248.141 91.881C246.831 93.0077 245.633 94.2579 244.563 95.6142C244.092 96.251 243.62 96.8439 243.258 97.4478C242.889 97.9953 242.552 98.5635 242.248 99.1497C241.151 101.269 240.668 102.718 240.58 102.685C240.645 102.337 240.74 101.995 240.865 101.664C240.986 101.268 241.128 100.88 241.293 100.5C241.491 100.061 241.677 99.534 241.974 99.007C242.265 98.4063 242.591 97.8234 242.95 97.2612C243.312 96.6353 243.773 96.0204 244.245 95.3616C245.322 93.9736 246.531 92.6938 247.855 91.5406C249.214 90.4094 250.685 89.4197 252.245 88.587C252.917 88.2229 253.61 87.8966 254.319 87.6097C254.93 87.3434 255.557 87.1124 256.195 86.918C256.714 86.745 257.241 86.5984 257.775 86.4788C258.176 86.3737 258.583 86.2931 258.993 86.2372C259.346 86.1521 259.706 86.1079 260.069 86.1055Z" fill="#E0E0E0"/>
<path d="M261.023 67.9443C261.089 67.9443 260.475 68.8666 259.794 70.4257C259.394 71.3378 259.071 72.2817 258.829 73.2476C258.55 74.4341 258.378 75.643 258.313 76.86C258.268 78.0753 258.337 79.2922 258.521 80.4944C258.677 81.4754 258.916 82.4415 259.235 83.3821C259.783 84.9962 260.332 85.9185 260.244 85.9515C260.156 85.9844 260.069 85.7538 259.816 85.3366C259.482 84.7318 259.2 84.1001 258.971 83.448C258.61 82.4981 258.338 81.5167 258.159 80.5164C257.942 79.3102 257.846 78.0853 257.874 76.86C257.94 75.6143 258.132 74.3783 258.444 73.1707C258.723 72.1913 259.09 71.2394 259.542 70.3269C259.836 69.7078 260.185 69.1162 260.584 68.5591C260.826 68.1419 260.99 67.9333 261.023 67.9443Z" fill="#E0E0E0"/>
<path d="M222.573 68.3286C222.694 68.3286 222.792 95.4602 222.792 128.938C222.792 162.416 222.694 189.548 222.573 189.548C222.452 189.548 222.354 162.416 222.354 128.938C222.354 95.4602 222.452 68.3286 222.573 68.3286Z" fill="#E0E0E0"/>
<path d="M521.486 289.949L521.64 290.069L522.068 290.454C522.452 290.783 522.99 291.31 523.736 291.925C525.857 293.724 528.164 295.292 530.616 296.603C534.357 298.612 538.46 299.855 542.687 300.259C548.095 300.723 553.535 299.872 558.543 297.777L558.708 297.712V297.876C561.805 308.596 568.169 318.081 576.913 325.008C580.254 327.68 583.914 329.926 587.809 331.695H587.93V331.826C587.217 334.018 586.71 336.271 586.416 338.557C586.251 339.655 586.196 340.753 586.119 341.752C586.042 342.752 586.053 343.806 586.119 344.783C586.213 348.188 586.755 351.566 587.732 354.83C588.366 356.939 589.174 358.992 590.146 360.967C590.476 361.659 590.783 362.164 590.958 362.516L591.167 362.911L591.233 363.054C591.233 363.054 591.233 363.054 591.145 362.922L590.915 362.537C590.728 362.197 590.41 361.692 590.07 361.011C589.056 359.047 588.219 356.997 587.568 354.884C586.556 351.612 585.988 348.218 585.878 344.794C585.823 343.806 585.878 342.784 585.878 341.741C585.878 340.698 585.999 339.611 586.163 338.513C586.456 336.214 586.959 333.946 587.666 331.739L587.743 331.914C583.825 330.141 580.139 327.891 576.77 325.216C573.038 322.273 569.716 318.842 566.894 315.016C563.074 309.884 560.222 304.098 558.477 297.942L558.686 298.041C553.647 300.136 548.177 300.98 542.742 300.5C538.479 300.075 534.344 298.798 530.583 296.745C528.132 295.408 525.829 293.815 523.714 291.991C522.979 291.343 522.463 290.805 522.09 290.465L521.673 290.069L521.486 289.949Z" fill="#E0E0E0"/>
<path d="M521.486 363.614L521.695 363.482L522.331 363.131L524.8 361.791C526.94 360.638 530.056 359.002 533.919 357.004C541.6 353.007 552.398 347.638 564.436 342.027C576.474 336.416 587.48 331.64 595.534 328.291C599.551 326.622 602.81 325.294 605.07 324.393L607.671 323.372L608.351 323.109L608.593 323.032L608.362 323.142L607.693 323.427L605.114 324.525L595.622 328.522C587.612 331.915 576.605 336.724 564.568 342.335C552.53 347.945 541.776 353.315 534.018 357.212L524.855 361.923L522.331 363.186L521.684 363.515L521.486 363.614Z" fill="#E0E0E0"/>
<path d="M521.607 275.291C521.607 275.291 521.607 275.444 521.607 275.741C521.607 276.037 521.607 276.487 521.607 277.069C521.607 278.244 521.607 279.957 521.607 282.175C521.607 286.622 521.607 293.045 521.662 300.984C521.662 316.894 521.662 338.887 521.662 363.284L521.354 363.207L522.287 361.429C533.809 339.403 544.629 319.705 552.596 305.431C556.579 298.327 559.849 292.606 562.12 288.653L564.743 284.118C565.05 283.602 565.281 283.218 565.434 282.944L565.687 282.548L565.467 282.955C565.314 283.24 565.094 283.635 564.798 284.151L562.329 288.774L552.903 305.595C544.98 319.869 534.193 339.578 522.682 361.593C522.353 362.208 522.035 362.812 521.75 363.372L521.442 363.965V363.295C521.442 338.898 521.442 316.905 521.442 300.995C521.442 293.056 521.442 286.633 521.442 282.186C521.442 279.99 521.442 278.255 521.442 277.08C521.442 276.498 521.442 276.059 521.442 275.752C521.442 275.444 521.607 275.291 521.607 275.291Z" fill="#E0E0E0"/>
<path d="M576.978 363.076C576.757 362.806 576.563 362.515 576.397 362.209C576.168 361.856 575.963 361.49 575.782 361.111C575.515 360.637 575.273 360.15 575.058 359.65C574.772 359.055 574.523 358.442 574.312 357.817C574.043 357.098 573.816 356.365 573.631 355.621C572.73 352.255 572.562 348.735 573.138 345.299C573.28 344.509 573.423 343.762 573.62 343.103C573.774 342.463 573.964 341.833 574.191 341.215C574.367 340.633 574.597 340.117 574.773 339.7C574.925 339.325 575.097 338.958 575.288 338.602C575.425 338.28 575.59 337.971 575.782 337.679C575.679 338.014 575.551 338.341 575.398 338.656C575.266 338.964 575.102 339.337 574.937 339.754C574.773 340.172 574.564 340.699 574.41 341.281C574.257 341.863 574.026 342.477 573.884 343.158C573.741 343.839 573.576 344.586 573.434 345.354C573.188 347.052 573.096 348.768 573.159 350.482C573.256 352.192 573.51 353.89 573.917 355.555C574.125 356.323 574.312 357.048 574.564 357.751C574.816 358.453 575.036 359.024 575.266 359.573C575.497 360.122 575.738 360.616 575.936 361.045C576.133 361.473 576.342 361.835 576.506 362.143C576.687 362.441 576.845 362.753 576.978 363.076Z" fill="#E0E0E0"/>
<path d="M577.56 336.175H577.132C576.846 336.175 576.418 336.175 575.881 336.175C574.357 336.11 572.843 335.896 571.36 335.538C566.414 334.377 561.913 331.8 558.406 328.123C554.898 324.446 552.536 319.827 551.608 314.829C551.328 313.327 551.184 311.801 551.18 310.273C551.18 309.735 551.18 309.317 551.18 309.032C551.161 308.886 551.161 308.739 551.18 308.593C551.189 308.739 551.189 308.886 551.18 309.032C551.18 309.317 551.18 309.735 551.18 310.273C551.226 311.789 551.402 313.299 551.706 314.786C552.152 316.991 552.867 319.134 553.835 321.165C555.032 323.644 556.601 325.925 558.488 327.929C561.984 331.537 566.42 334.093 571.294 335.307C572.766 335.681 574.268 335.931 575.782 336.054C576.32 336.109 576.737 336.054 577.022 336.131C577.202 336.115 577.384 336.13 577.56 336.175Z" fill="#E0E0E0"/>
<path d="M521.486 304.08C521.585 304.112 521.678 304.16 521.761 304.223L522.518 304.695C522.847 304.915 523.242 305.167 523.725 305.442C524.208 305.716 524.734 306.045 525.36 306.342C525.985 306.638 526.644 307.012 527.401 307.319C528.158 307.627 528.959 307.956 529.815 308.263C533.572 309.564 537.541 310.142 541.513 309.965C542.423 309.91 543.29 309.867 544.102 309.746C544.914 309.625 545.65 309.526 546.297 309.405C546.944 309.285 547.581 309.12 548.13 308.999C548.678 308.878 549.117 308.747 549.49 308.637L550.346 308.395C550.445 308.359 550.548 308.336 550.653 308.329C550.653 308.329 550.566 308.384 550.368 308.461L549.523 308.758C549.081 308.922 548.631 309.061 548.173 309.175C547.636 309.307 547.076 309.504 546.341 309.625C545.606 309.746 544.914 309.921 544.146 310.02C543.378 310.119 542.456 310.207 541.535 310.273C539.533 310.362 537.528 310.27 535.543 309.998C533.565 309.693 531.618 309.208 529.727 308.549C528.86 308.22 528.037 307.923 527.302 307.561C526.567 307.198 525.876 306.869 525.261 306.54C524.647 306.21 524.164 305.87 523.637 305.595C523.11 305.321 522.77 305.035 522.463 304.805L521.739 304.278C521.647 304.222 521.562 304.156 521.486 304.08Z" fill="#E0E0E0"/>
<path d="M521.486 319.836C521.731 320.013 521.962 320.208 522.178 320.418C522.796 320.96 523.444 321.466 524.12 321.934C525.109 322.632 526.172 323.217 527.291 323.679C528.669 324.227 530.117 324.574 531.593 324.712C534.286 324.95 536.999 324.575 539.526 323.614C540.278 323.327 541.011 322.993 541.721 322.614C541.98 322.456 542.252 322.32 542.533 322.208C542.301 322.403 542.051 322.576 541.787 322.724C541.085 323.147 540.351 323.514 539.592 323.822C537.041 324.855 534.278 325.258 531.538 324.997C530.027 324.858 528.547 324.488 527.149 323.899C526.013 323.414 524.938 322.799 523.944 322.065C523.281 321.578 522.653 321.042 522.068 320.462C521.853 320.274 521.658 320.065 521.486 319.836Z" fill="#E0E0E0"/>
<path d="M563.009 344.047C562.903 344.062 562.796 344.062 562.691 344.047L561.78 343.894C561.385 343.817 560.913 343.696 560.353 343.553C559.794 343.41 559.168 343.235 558.499 342.971C554.952 341.706 551.71 339.708 548.985 337.108C545.814 334.066 543.608 330.575 542.993 327.709C542.739 326.589 542.739 325.426 542.993 324.305C543.062 324.004 543.157 323.71 543.279 323.427C543.316 323.324 543.364 323.224 543.421 323.13C543.421 323.13 543.268 323.548 543.114 324.327C542.939 325.424 542.992 326.545 543.268 327.621C543.915 330.388 546.121 333.825 549.259 336.822C551.952 339.394 555.136 341.396 558.619 342.708C559.289 342.982 559.914 343.158 560.441 343.345L561.846 343.729L562.745 343.937C562.837 343.963 562.926 344 563.009 344.047Z" fill="#E0E0E0"/>
<path d="M562.779 363.285C562.632 363.073 562.504 362.849 562.395 362.615C562.077 361.987 561.795 361.342 561.55 360.682C561.186 359.704 560.904 358.698 560.705 357.674C560.461 356.415 560.339 355.135 560.343 353.853C560.362 352.568 560.509 351.288 560.782 350.032C561 349.009 561.305 348.006 561.693 347.034C561.945 346.38 562.239 345.742 562.57 345.124C562.678 344.888 562.814 344.667 562.976 344.465C563.031 344.465 562.505 345.464 561.879 347.122C561.091 349.28 560.672 351.555 560.639 353.853C560.634 356.149 561.004 358.43 561.736 360.605C562.34 362.274 562.845 363.263 562.779 363.285Z" fill="#E0E0E0"/>
<path d="M549.764 363.076C549.632 362.971 549.514 362.849 549.413 362.714C549.12 362.364 548.849 361.997 548.601 361.616C547.779 360.326 547.213 358.891 546.933 357.388C546.671 355.882 546.697 354.339 547.01 352.843C547.099 352.391 547.224 351.946 547.383 351.514C547.493 351.206 547.558 351.042 547.58 351.053C547.602 351.064 547.427 351.755 547.24 352.886C546.992 354.358 546.992 355.861 547.24 357.333C547.523 358.796 548.046 360.203 548.787 361.495C549.402 362.472 549.841 363.043 549.764 363.076Z" fill="#E0E0E0"/>
<path d="M534.885 335.252C534.962 335.252 535.104 336.35 535.697 338.063C535.856 338.53 536.039 338.988 536.245 339.436C536.443 339.919 536.717 340.424 536.992 340.951C537.62 342.077 538.355 343.139 539.186 344.124C540.034 345.098 540.967 345.995 541.974 346.803C542.456 347.155 542.895 347.506 543.356 347.781C543.817 348.055 544.223 348.319 544.618 348.538C546.209 349.395 547.285 349.713 547.263 349.779C547.004 349.736 546.75 349.666 546.506 349.57C546.264 349.494 545.968 349.395 545.628 349.252C545.252 349.101 544.886 348.929 544.53 348.736C544.066 348.543 543.615 348.319 543.181 348.066C542.709 347.792 542.248 347.451 541.754 347.1C540.721 346.291 539.765 345.387 538.901 344.399C538.065 343.374 537.33 342.271 536.706 341.105C536.432 340.599 536.186 340.079 535.971 339.546C535.79 339.1 535.633 338.646 535.499 338.184C535.346 337.745 535.269 337.339 535.181 336.987C535.097 336.688 535.035 336.384 534.995 336.076C534.928 335.806 534.891 335.53 534.885 335.252Z" fill="#E0E0E0"/>
<path d="M521.321 334.528C521.321 334.473 522.002 334.923 523.176 335.439C523.854 335.736 524.555 335.978 525.272 336.164C527.042 336.598 528.881 336.677 530.682 336.395C531.428 336.282 532.163 336.102 532.876 335.857C534.083 335.45 534.775 335.055 534.808 335.11C534.666 335.235 534.507 335.338 534.336 335.417C533.897 335.681 533.434 335.902 532.953 336.076C532.242 336.35 531.508 336.556 530.758 336.691C529.838 336.846 528.904 336.908 527.971 336.878C527.045 336.828 526.125 336.685 525.228 336.449C524.493 336.256 523.779 335.987 523.099 335.648C522.635 335.43 522.191 335.173 521.771 334.879C521.607 334.782 521.455 334.664 521.321 334.528Z" fill="#E0E0E0"/>
<path d="M521.606 363.284C521.606 363.196 541.885 363.12 566.893 363.12C591.902 363.12 612.202 363.196 612.202 363.284C612.202 363.372 591.924 363.449 566.893 363.449C541.863 363.449 521.606 363.372 521.606 363.284Z" fill="#E0E0E0"/>
<path d="M640.843 67.1647C641.41 67.1154 641.965 66.9784 642.489 66.7584C643.115 66.4643 643.658 66.0191 644.069 65.4628C644.634 64.7077 644.921 63.7808 644.881 62.8386C644.881 60.6426 644.881 58.0513 644.881 54.9989C644.881 53.4726 644.881 51.8366 644.881 50.1018C644.881 49.2453 644.881 48.312 644.881 47.4556C644.756 46.5615 644.331 45.7366 643.674 45.1169C642.994 44.4499 642.091 44.0587 641.14 44.0189H631.527H617.086H583.99C583.481 44.0188 582.977 44.1195 582.507 44.3151C582.037 44.5107 581.61 44.7974 581.251 45.1586C580.892 45.5198 580.608 45.9485 580.416 46.42C580.223 46.8914 580.125 47.3964 580.128 47.9058V50.1018C580.128 52.9676 580.128 55.7784 580.128 58.5564V62.6629C580.093 63.2894 580.209 63.9152 580.464 64.4881C580.72 65.061 581.109 65.5646 581.598 65.9569C582.084 66.3435 582.657 66.6072 583.266 66.7255C583.9 66.7979 584.538 66.8199 585.176 66.7914H589.038H616.065L634.292 66.8902H639.241H640.536C640.682 66.8763 640.829 66.8763 640.975 66.8902C640.829 66.9066 640.682 66.9066 640.536 66.8902H639.241L634.292 66.9451L616.065 67.0329L589.038 67.0988H585.176C584.505 67.1323 583.833 67.1066 583.167 67.022C582.471 66.8893 581.816 66.5919 581.258 66.1545C580.711 65.7573 580.259 65.2424 579.936 64.6477C579.613 64.053 579.428 63.3936 579.393 62.7178V48.0046C579.391 47.2342 579.591 46.4769 579.974 45.8086C580.364 45.1335 580.926 44.5742 581.603 44.1883C582.279 43.8024 583.047 43.6037 583.826 43.6126H616.921H631.362H637.946H641.041C642.084 43.6587 643.076 44.0842 643.828 44.8094C644.542 45.4973 645.002 46.4068 645.134 47.3897C645.222 48.356 645.134 49.2124 645.134 50.0908C645.134 51.8256 645.134 53.4617 645.134 54.9879C645.134 58.0403 645.134 60.6645 645.134 62.8276C645.152 63.8129 644.839 64.7759 644.245 65.5616C643.805 66.1224 643.231 66.5641 642.577 66.8463C642.175 67.0142 641.749 67.118 641.315 67.1537L640.843 67.1647Z" fill="#E0E0E0"/>
<path d="M130.013 55.3393C130.589 55.2838 131.152 55.1355 131.681 54.9001C132.421 54.5586 133.042 54.0046 133.466 53.3085C133.89 52.6123 134.098 51.8057 134.062 50.9912C134.062 48.7952 134.062 46.2039 134.062 43.1515C134.062 41.6253 134.062 39.9892 134.062 38.2544C134.062 37.398 134.062 36.4647 134.062 35.6082C133.942 34.7125 133.515 33.886 132.855 33.2695C132.177 32.605 131.279 32.214 130.331 32.1715H120.707H106.266H73.1709C72.4888 32.1726 71.8191 32.3539 71.2295 32.6971C70.6398 33.0403 70.1512 33.5332 69.8131 34.1259C69.3832 34.746 69.1465 35.4796 69.1327 36.2341V46.7749C69.1327 48.1693 69.1327 49.5418 69.1327 50.8924C69.1003 51.5197 69.2178 52.1458 69.4754 52.7186C69.733 53.2915 70.1234 53.7946 70.6141 54.1864C71.0991 54.5749 71.6718 54.8388 72.2821 54.955C72.9158 55.0274 73.5543 55.0494 74.1914 55.0209H78.0541L105.081 55.0758L123.297 55.1746L105.081 55.2624L78.0541 55.3283H74.2244C73.554 55.3565 72.8825 55.3308 72.2162 55.2514C71.5198 55.1188 70.8651 54.8214 70.3069 54.384C69.7454 53.9367 69.299 53.3614 69.0051 52.7062C68.7111 52.051 68.578 51.335 68.617 50.6179V46.7749C68.617 44.0079 68.617 41.1861 68.617 38.3313V36.2341C68.6196 35.4643 68.8198 34.7081 69.1986 34.0381C69.5881 33.363 70.1501 32.8037 70.827 32.4178C71.5039 32.0319 72.2712 31.8332 73.0502 31.8421H106.146H120.587H127.171H130.265C131.279 31.9009 132.241 32.3094 132.987 32.9981C133.733 33.6868 134.218 34.6131 134.358 35.6192C134.435 36.5854 134.358 37.4419 134.358 38.3203C134.358 40.0551 134.358 41.6911 134.358 43.2174C134.358 46.2698 134.358 48.894 134.358 51.0571C134.385 52.0436 134.071 53.0091 133.469 53.7911C132.992 54.3547 132.375 54.7826 131.681 55.0318C131.28 55.2022 130.853 55.306 130.419 55.3393H130.013Z" fill="#E0E0E0"/>
<path d="M106.53 78.8253C107.101 78.7839 107.661 78.6465 108.186 78.419C108.926 78.0776 109.548 77.5235 109.972 76.8274C110.396 76.1313 110.603 75.3246 110.568 74.5101C110.568 72.3141 110.568 69.7119 110.568 66.6704C110.568 65.1332 110.568 63.4972 110.568 61.7733C110.568 60.9169 110.568 59.9836 110.568 59.1272C110.454 58.2317 110.031 57.4043 109.372 56.7884C108.685 56.1308 107.786 55.7412 106.837 55.6904H103.764H97.1802H82.7284H49.6438C48.9594 55.694 48.288 55.8775 47.6967 56.2224C47.1055 56.5674 46.6152 57.0617 46.2749 57.6558C45.9482 58.2478 45.7746 58.9121 45.7702 59.5883V74.3015C45.7337 74.9283 45.8483 75.5546 46.1042 76.1278C46.36 76.7011 46.7498 77.2044 47.2406 77.5955C47.7268 77.9822 48.2989 78.2458 48.9086 78.3641C49.542 78.4402 50.1804 78.4659 50.8179 78.441H54.6805L81.7078 78.5069L99.8577 78.7155H104.807H106.091C106.237 78.7057 106.383 78.7057 106.53 78.7155C106.384 78.7302 106.237 78.7302 106.091 78.7155H104.807H99.8577L81.631 79.0559H54.6037H50.7411C50.0726 79.1039 49.4015 79.1039 48.733 79.0559C48.0381 78.9181 47.3846 78.6212 46.8236 78.1884C46.2642 77.7393 45.8193 77.1637 45.5255 76.5089C45.2317 75.8542 45.0975 75.1391 45.1337 74.4223V70.2719C45.1337 67.5049 45.1337 64.683 45.1337 61.8282V59.6322C45.1415 58.8632 45.3415 58.1083 45.7153 57.4362C46.1133 56.7663 46.6788 56.2115 47.356 55.8265C48.0333 55.4415 48.799 55.2394 49.5779 55.2402H82.6625H97.1144H103.698H106.793C107.805 55.3135 108.76 55.7353 109.497 56.434C110.233 57.1326 110.704 58.0649 110.831 59.0723C110.908 60.0385 110.831 60.8949 110.831 61.7733C110.831 63.4972 110.831 65.1332 110.831 66.6704C110.831 69.7119 110.831 72.3471 110.831 74.5101C110.856 75.4947 110.538 76.4573 109.931 77.2332C109.497 77.8021 108.922 78.2486 108.263 78.5288C107.864 78.6923 107.442 78.7959 107.012 78.8363C106.852 78.8547 106.689 78.851 106.53 78.8253Z" fill="#E0E0E0"/>
<path d="M222.902 406.952C223.471 406.895 224.03 406.755 224.558 406.535C225.298 406.193 225.92 405.639 226.344 404.943C226.768 404.247 226.975 403.44 226.94 402.626C226.94 400.43 226.94 397.839 226.94 394.786C226.94 393.249 226.94 391.624 226.94 389.889C226.94 389.033 226.94 388.099 226.885 387.243C226.76 386.328 226.318 385.486 225.636 384.864C224.954 384.242 224.076 383.879 223.154 383.839H220.081H213.497H199.056H165.972C165.287 383.843 164.616 384.026 164.025 384.371C163.434 384.716 162.943 385.21 162.603 385.805C162.276 386.396 162.103 387.061 162.098 387.737V398.333C162.098 399.716 162.098 401.089 162.098 402.45C162.069 403.077 162.188 403.702 162.446 404.274C162.703 404.847 163.092 405.35 163.58 405.744C164.068 406.125 164.64 406.385 165.248 406.502C165.881 406.583 166.52 406.609 167.157 406.579H171.02L198.047 406.634L216.263 406.721L221.223 406.776H222.506C222.652 406.762 222.799 406.762 222.945 406.776H222.506H221.223L216.263 406.831L198.047 406.919L171.02 406.974H167.157C166.487 407.002 165.815 406.976 165.149 406.897C164.452 406.765 163.798 406.467 163.239 406.03C162.678 405.582 162.232 405.007 161.938 404.352C161.644 403.697 161.511 402.981 161.55 402.264V398.146C161.55 395.379 161.55 392.557 161.55 389.702V387.506C161.547 386.921 161.66 386.34 161.882 385.798C162.104 385.256 162.431 384.763 162.843 384.348C163.256 383.933 163.747 383.603 164.288 383.378C164.829 383.153 165.408 383.038 165.994 383.038H199.078H213.519H220.103H223.198C224.211 383.096 225.173 383.505 225.919 384.194C226.666 384.882 227.15 385.809 227.291 386.815C227.368 387.781 227.291 388.637 227.291 389.516C227.291 391.251 227.291 392.876 227.291 394.413C227.291 397.465 227.291 400.09 227.236 402.253C227.26 403.101 227.029 403.938 226.573 404.654C226.118 405.37 225.458 405.934 224.679 406.271C224.276 406.436 223.851 406.539 223.417 406.579L222.902 406.952Z" fill="#E0E0E0"/>
<path d="M752.376 320.254C752.947 320.204 753.507 320.063 754.033 319.837C754.773 319.495 755.394 318.941 755.819 318.245C756.243 317.549 756.45 316.742 756.414 315.928C756.414 313.732 756.414 311.14 756.359 308.088C756.359 306.562 756.359 304.926 756.359 303.191C756.359 302.335 756.359 301.401 756.359 300.545C756.234 299.651 755.808 298.826 755.152 298.206C754.475 297.542 753.576 297.151 752.628 297.108H742.895H728.454H695.359C694.85 297.108 694.345 297.209 693.875 297.404C693.405 297.6 692.979 297.887 692.62 298.248C692.261 298.609 691.977 299.038 691.784 299.509C691.591 299.981 691.493 300.486 691.496 300.995V303.191C691.496 306.046 691.496 308.868 691.496 311.635V315.752C691.428 316.704 691.711 317.647 692.291 318.404C692.872 319.161 693.709 319.678 694.645 319.859C695.279 319.931 695.918 319.953 696.555 319.924H700.417L727.445 319.979L745.66 320.078L727.445 320.166L700.417 320.232H696.588C695.914 320.26 695.238 320.234 694.569 320.155C693.875 320.023 693.224 319.725 692.67 319.288C692.109 318.84 691.662 318.265 691.368 317.61C691.074 316.955 690.941 316.239 690.98 315.521C690.98 314.16 690.98 312.787 690.98 311.404V300.808C690.983 300.039 691.183 299.282 691.562 298.612C691.951 297.937 692.513 297.378 693.19 296.992C693.867 296.606 694.634 296.407 695.413 296.416H728.509H742.95H749.534H752.628C753.644 296.473 754.608 296.88 755.357 297.569C756.105 298.258 756.592 299.186 756.732 300.193C756.809 301.16 756.732 302.016 756.732 302.894C756.732 304.629 756.732 306.265 756.732 307.792C756.732 310.844 756.732 313.468 756.732 315.631C756.751 316.617 756.438 317.58 755.844 318.365C755.404 318.926 754.83 319.368 754.176 319.65C753.774 319.818 753.348 319.922 752.914 319.957L752.376 320.254Z" fill="#E0E0E0"/>
<path d="M539.46 154.379C540.03 154.322 540.588 154.182 541.117 153.962C541.857 153.62 542.478 153.066 542.902 152.37C543.327 151.674 543.534 150.867 543.498 150.053C543.498 147.857 543.498 145.266 543.498 142.213C543.498 140.676 543.498 139.051 543.498 137.316C543.498 136.46 543.498 135.526 543.443 134.67C543.318 133.755 542.876 132.913 542.194 132.291C541.513 131.669 540.634 131.306 539.712 131.266H530.012H515.571H482.487C481.802 131.27 481.131 131.453 480.539 131.798C479.948 132.143 479.458 132.637 479.118 133.231C478.791 133.823 478.617 134.488 478.613 135.164V145.76C478.613 147.143 478.613 148.516 478.613 149.877C478.583 150.504 478.702 151.129 478.959 151.702C479.217 152.274 479.606 152.778 480.094 153.171C480.583 153.552 481.154 153.812 481.762 153.929C482.395 154.01 483.034 154.036 483.672 154.006H487.534H514.562L532.777 154.093H537.737H539.021C539.167 154.079 539.314 154.079 539.46 154.093H539.021H537.737H532.777L514.562 154.181L487.534 154.247H483.672C483.001 154.275 482.33 154.25 481.664 154.17C480.967 154.038 480.312 153.74 479.754 153.303C479.193 152.856 478.746 152.28 478.452 151.625C478.158 150.97 478.025 150.254 478.064 149.537V145.815C478.064 143.048 478.064 140.226 478.064 137.371V135.175C478.061 134.589 478.174 134.008 478.396 133.466C478.618 132.924 478.945 132.432 479.358 132.016C479.771 131.601 480.262 131.271 480.803 131.047C481.343 130.822 481.923 130.706 482.508 130.706H515.593H530.034H536.618H539.712C540.726 130.765 541.688 131.173 542.434 131.862C543.18 132.551 543.665 133.477 543.805 134.483C543.882 135.449 543.805 136.306 543.805 137.184C543.805 138.919 543.805 140.544 543.805 142.081C543.805 145.134 543.805 147.758 543.751 149.921C543.774 150.77 543.544 151.606 543.088 152.323C542.632 153.039 541.973 153.602 541.194 153.94C540.791 154.104 540.365 154.208 539.932 154.247C539.614 154.39 539.46 154.379 539.46 154.379Z" fill="#E0E0E0"/>
<path d="M98.9141 228.681C99.4816 228.638 100.038 228.501 100.56 228.274C101.186 227.98 101.729 227.535 102.14 226.979C102.703 226.227 102.99 225.304 102.952 224.366C102.952 222.17 102.952 219.567 102.952 216.515C102.952 214.989 102.952 213.353 102.952 211.618C102.952 210.761 102.952 209.828 102.952 208.972C102.827 208.077 102.401 207.253 101.745 206.633C101.065 205.966 100.162 205.575 99.2104 205.535H89.477H75.0361H41.9406C41.4315 205.535 40.9274 205.636 40.4573 205.831C39.9872 206.027 39.5604 206.313 39.2015 206.675C38.8425 207.036 38.5585 207.465 38.3656 207.936C38.1728 208.407 38.075 208.912 38.0779 209.422V211.618C38.0779 214.484 38.0779 217.294 38.0779 220.072V224.179C38.0433 224.805 38.1587 225.431 38.4144 226.004C38.6702 226.577 39.0589 227.081 39.5484 227.473C40.0345 227.86 40.6067 228.123 41.2163 228.241C41.85 228.314 42.4885 228.336 43.1257 228.307H46.9883L74.0156 228.362L92.2423 228.461L97.1913 228.516H98.4861C98.6321 228.502 98.7791 228.502 98.9251 228.516H98.4861H97.1913L92.2423 228.571L74.0156 228.659L46.9883 228.725H43.1147C42.4444 228.758 41.7724 228.732 41.1066 228.648C40.4086 228.52 39.7529 228.222 39.1972 227.78C38.6364 227.332 38.1906 226.757 37.8966 226.102C37.6027 225.447 37.4693 224.731 37.5073 224.014V209.301C37.5054 208.531 37.7059 207.773 38.0889 207.105C38.4784 206.43 39.0404 205.871 39.7173 205.485C40.3942 205.099 41.1615 204.9 41.9406 204.909H75.0361H89.477H96.061H99.1555C100.169 204.968 101.131 205.376 101.877 206.065C102.624 206.754 103.108 207.68 103.249 208.686C103.336 209.652 103.249 210.509 103.249 211.387C103.249 213.122 103.249 214.758 103.249 216.284C103.249 219.337 103.249 221.972 103.249 224.135C103.27 225.117 102.956 226.078 102.36 226.858C101.93 227.518 101.326 228.046 100.615 228.384C100.213 228.552 99.7872 228.656 99.353 228.692L98.9141 228.681Z" fill="#E0E0E0"/>
<path d="M379.546 489.752C483.452 489.752 567.684 479.527 567.684 466.914C567.684 454.3 483.452 444.075 379.546 444.075C275.64 444.075 191.408 454.3 191.408 466.914C191.408 479.527 275.64 489.752 379.546 489.752Z" fill="#263238"/>
<path d="M462.12 383.993C462.845 385.2 513.07 449.28 513.07 449.28L578.91 488.808L563.953 504.553C563.953 504.553 492.484 486.733 484.726 478.113C476.967 469.494 446.527 435.148 446.527 435.148L462.12 383.993Z" fill="#FFBF9D"/>
<path d="M495.61 466.353C495.628 466.071 495.691 465.793 495.797 465.53C496.019 464.8 496.305 464.09 496.653 463.411C498.936 458.825 502.928 455.32 507.769 453.65C508.483 453.398 509.217 453.207 509.963 453.079C510.501 452.991 510.797 452.958 510.797 453.002C510.797 453.046 509.7 453.331 507.89 454.034C505.595 454.945 503.472 456.241 501.613 457.866C499.76 459.504 498.195 461.442 496.982 463.597C496.093 465.255 495.709 466.386 495.61 466.353Z" fill="#FF9A6C"/>
<path d="M600.746 495.396L619.576 507.024C620.479 507.561 621.234 508.316 621.771 509.22L628.827 521.078C629.171 521.715 629.311 522.443 629.23 523.163C629.148 523.883 628.848 524.56 628.37 525.105C627.892 525.649 627.259 526.033 626.556 526.207C625.853 526.38 625.113 526.334 624.437 526.074L624.295 526.019C624.295 526.019 619.203 527.644 616.295 525.558C613.387 523.472 607.451 514.182 607.451 514.182L602.216 513.48L608.394 525.635C608.394 525.635 603.555 527.304 600.384 524.537C597.213 521.77 592.209 514.029 592.209 514.029L583.43 511.679C583.43 511.679 578.898 514.259 571.283 512.579C571.283 512.579 571.436 522.769 564.479 525.843C561.286 527.238 561.516 522.231 561.516 522.231L562.438 514.457C562.372 513.787 561.527 511.734 561.692 511.086L565.357 496.527L575.178 487.227L600.746 495.396Z" fill="#FFBF9D"/>
<path d="M602.886 511.185C603.32 511.394 603.738 511.637 604.137 511.91L607.56 514.106C609.053 516.126 611.028 518.794 613.431 521.792C614.035 522.549 614.66 523.329 615.329 524.119C615.924 524.963 616.715 525.649 617.634 526.118C618.655 526.486 619.75 526.607 620.827 526.469C621.969 526.363 623.093 526.116 624.174 525.733L624.02 526.129C623.428 525.031 622.791 523.812 622.144 522.604L615.746 510.526L615.845 510.625L604.433 503.51L601.207 501.446C600.82 501.217 600.453 500.956 600.109 500.666C600.523 500.848 600.923 501.061 601.305 501.303L604.597 503.246L616.119 510.186H616.185V510.252C618.128 513.886 620.322 517.938 622.627 522.33L624.503 525.854L624.657 526.14L624.349 526.249C623.218 526.647 622.043 526.905 620.849 527.018C619.684 527.161 618.501 527.018 617.403 526.601C617.136 526.487 616.879 526.351 616.635 526.195C616.407 526.022 616.191 525.835 615.988 525.635C615.604 525.239 615.264 524.844 614.89 524.438C614.221 523.636 613.596 522.846 612.992 522.077C610.611 519.003 608.691 516.302 607.242 514.237L603.95 511.953C603.575 511.726 603.219 511.469 602.886 511.185Z" fill="#FF9A6C"/>
<path d="M581.696 511.218C581.953 511.231 582.207 511.275 582.453 511.349L584.571 511.866L592.253 513.864H592.329V513.941C593.843 516.506 595.541 518.957 597.41 521.275C598.46 522.614 599.694 523.797 601.075 524.789C602.593 525.732 604.375 526.16 606.156 526.008C606.858 525.938 607.54 525.733 608.164 525.404L608.065 525.766C604.916 519.672 602.074 514.138 599.846 509.834L599.912 509.911L593.91 505.212L592.395 503.982C592.198 503.838 592.018 503.672 591.858 503.488C592.074 503.601 592.279 503.734 592.472 503.883L594.162 505.102L600.263 509.648C602.458 513.941 605.41 519.442 608.603 525.514L608.735 525.755L608.504 525.887C607.811 526.273 607.045 526.512 606.255 526.59C604.331 526.767 602.402 526.304 600.768 525.272C599.337 524.25 598.065 523.021 596.993 521.627C595.122 519.275 593.434 516.782 591.945 514.171L592.077 514.27L584.396 512.074L582.311 511.448C582.1 511.387 581.895 511.31 581.696 511.218Z" fill="#FF9A6C"/>
<path d="M562.658 525.942C562.658 525.876 562.987 526.008 563.558 526.008C564.361 525.997 565.136 525.71 565.753 525.196C566.681 524.413 567.477 523.486 568.112 522.451C568.496 521.869 568.88 521.243 569.209 520.595C569.575 519.922 569.866 519.212 570.076 518.476C570.675 516.325 571.043 514.117 571.174 511.888V511.767H571.261C572.512 510.922 573.544 510.23 574.279 509.769C574.646 509.496 575.044 509.268 575.464 509.088C575.464 509.088 575.124 509.45 574.433 509.988C573.741 510.526 572.743 511.262 571.525 512.184L571.623 511.998C571.562 514.264 571.219 516.514 570.603 518.695C570.38 519.462 570.067 520.199 569.67 520.891C569.283 521.558 568.887 522.183 568.485 522.769C567.803 523.839 566.933 524.776 565.917 525.536C565.217 526.076 564.339 526.331 563.459 526.25C563.226 526.229 562.996 526.173 562.779 526.085C562.724 525.942 562.647 525.942 562.658 525.942Z" fill="#FF9A6C"/>
<path d="M567.014 496.219C566.069 497.629 565.211 499.096 564.446 500.611C563.861 502.215 563.378 503.854 562.998 505.519C562.91 503.76 563.226 502.003 563.922 500.385C564.618 498.767 565.676 497.331 567.014 496.186V496.219Z" fill="#FF9A6C"/>
<path d="M290.409 383.993C289.696 385.2 239.471 449.28 239.471 449.28L173.631 488.808L188.588 504.553C188.588 504.553 260.046 486.733 267.815 478.113C275.584 469.494 306.013 435.148 306.013 435.148L290.409 383.993Z" fill="#FFBF9D"/>
<path d="M256.93 466.354C256.831 466.354 256.447 465.256 255.525 463.598C253.111 459.243 249.259 455.862 244.629 454.034C242.862 453.331 241.699 453.101 241.71 453.002C241.721 452.903 242.017 453.002 242.555 453.079C243.301 453.207 244.035 453.398 244.75 453.65C249.59 455.32 253.582 458.825 255.866 463.411C256.228 464.098 256.533 464.814 256.776 465.552C256.869 465.81 256.921 466.08 256.93 466.354Z" fill="#FF9A6C"/>
<path d="M152.167 494.484L133.337 506.112C132.415 506.644 131.642 507.399 131.088 508.308L123.999 520.2C123.655 520.837 123.514 521.565 123.596 522.285C123.678 523.004 123.978 523.682 124.456 524.226C124.934 524.77 125.567 525.155 126.27 525.328C126.973 525.501 127.712 525.455 128.388 525.195L128.531 525.13C128.531 525.13 133.622 526.766 136.53 524.679C139.438 522.593 145.375 513.304 145.375 513.304L150.598 512.601L144.431 524.756C144.431 524.756 149.27 526.425 152.442 523.658C155.613 520.891 160.617 513.15 160.617 513.15L169.396 510.79C169.396 510.79 173.928 513.37 181.543 511.701C181.543 511.701 181.389 521.89 188.346 524.954C191.54 526.359 191.309 521.352 191.309 521.352L190.388 513.568C190.388 512.898 191.298 510.856 191.134 510.197L187.469 495.648L177.768 486.414L152.167 494.484Z" fill="#FFBF9D"/>
<path d="M150.028 510.285C149.664 510.597 149.279 510.883 148.876 511.141L145.584 513.436C144.135 515.489 142.215 518.19 139.834 521.276C139.23 522.044 138.605 522.835 137.935 523.636C137.595 524.032 137.255 524.438 136.838 524.833C136.651 525.02 136.41 525.207 136.19 525.393C135.946 525.55 135.689 525.686 135.422 525.8C134.322 526.206 133.142 526.349 131.977 526.217C130.783 526.104 129.607 525.846 128.476 525.448L128.169 525.338L128.323 525.042L130.199 521.528C132.503 517.202 134.698 513.107 136.64 509.45V509.384H136.706L148.228 502.434L151.52 500.502C151.899 500.254 152.3 500.041 152.716 499.865C152.373 500.155 152.006 500.416 151.619 500.644L148.393 502.698L136.981 509.824L137.079 509.725L130.682 521.803C130.034 523.011 129.398 524.196 128.805 525.327L128.652 524.921C129.715 525.303 130.82 525.554 131.944 525.668C133.022 525.807 134.117 525.683 135.137 525.305C136.055 524.841 136.846 524.158 137.441 523.318C138.111 522.527 138.736 521.748 139.34 520.99C141.743 517.949 143.729 515.27 145.211 513.304L148.634 511.108C149.076 510.797 149.542 510.521 150.028 510.285Z" fill="#FF9A6C"/>
<path d="M171.184 510.306C170.953 510.419 170.71 510.508 170.46 510.57L168.375 511.196L160.694 513.392L160.825 513.293C159.336 515.906 157.645 518.399 155.767 520.748C154.696 522.14 153.428 523.368 152.003 524.394C150.367 525.421 148.439 525.88 146.516 525.7C145.727 525.627 144.961 525.392 144.267 525.009L144.036 524.877L144.168 524.635L152.508 508.769L158.609 504.212L160.299 503.005C160.492 502.855 160.697 502.723 160.913 502.609C160.753 502.794 160.572 502.959 160.375 503.103L158.762 504.41L152.76 509.11L152.826 509.033C150.631 513.337 147.756 518.915 144.607 524.965L144.508 524.591C145.132 524.924 145.813 525.133 146.516 525.206C148.297 525.358 150.079 524.931 151.597 523.987C152.978 522.995 154.212 521.812 155.262 520.474C157.131 518.156 158.829 515.704 160.343 513.139L160.397 513.062H160.474L168.156 511.064L170.273 510.548C170.566 510.43 170.872 510.349 171.184 510.306Z" fill="#FF9A6C"/>
<path d="M190.255 525.009C190.255 525.009 190.19 525.063 190.047 525.118C189.832 525.216 189.602 525.276 189.367 525.294C188.487 525.375 187.608 525.12 186.909 524.58C185.895 523.818 185.026 522.881 184.341 521.813C183.935 521.22 183.54 520.606 183.156 519.936C182.761 519.243 182.448 518.506 182.223 517.74C181.608 515.558 181.265 513.308 181.202 511.042L181.301 511.218C180.083 510.328 179.107 509.593 178.393 509.022C177.68 508.451 177.296 508.176 177.362 508.132C177.781 508.31 178.178 508.535 178.547 508.802C179.282 509.274 180.314 509.955 181.565 510.8L181.652 510.866V510.987C181.783 513.216 182.151 515.424 182.75 517.575C182.962 518.31 183.253 519.021 183.617 519.694C183.99 520.342 184.374 520.968 184.714 521.55C185.355 522.58 186.155 523.503 187.084 524.284C187.703 524.796 188.476 525.086 189.279 525.107C189.926 525.074 190.233 524.943 190.255 525.009Z" fill="#FF9A6C"/>
<path d="M185.899 495.319C187.24 496.462 188.299 497.898 188.995 499.517C189.692 501.135 190.007 502.892 189.916 504.652C189.536 502.987 189.052 501.348 188.467 499.744C187.706 498.216 186.849 496.737 185.899 495.319Z" fill="#FF9A6C"/>
<path d="M418.282 223.992C419.716 222.367 420.601 220.33 420.811 218.172C421.021 216.013 420.545 213.844 419.45 211.973C418.356 210.101 416.699 208.623 414.716 207.749C412.733 206.875 410.524 206.649 408.406 207.105C408.21 204.983 407.467 202.949 406.25 201.2C405.034 199.451 403.385 198.048 401.465 197.128C399.544 196.208 397.418 195.801 395.294 195.949C393.17 196.096 391.12 196.792 389.345 197.969C386.855 196.137 383.824 195.193 380.735 195.286C377.646 195.38 374.678 196.506 372.303 198.485C370.219 198.227 368.107 198.64 366.274 199.664C364.441 200.689 362.981 202.271 362.108 204.182C361.234 206.093 360.992 208.232 361.417 210.29C361.841 212.348 362.91 214.217 364.468 215.625L415.034 243.426C417.506 243.632 419.965 242.899 421.922 241.374C423.879 239.848 425.19 237.641 425.595 235.192C426.001 232.743 425.47 230.231 424.109 228.156C422.747 226.081 420.655 224.594 418.249 223.992H418.282Z" fill="#263238"/>
<path d="M370.701 208.389L372.896 208.28C383.432 207.754 393.779 211.218 401.878 217.981C409.977 224.744 415.234 234.311 416.603 244.777C419.236 264.958 421.892 287.292 422.298 298.173C423.143 320.704 400.812 325.315 400.812 325.315L404.104 352.271L349.413 353.292L339.712 255.439C336.475 232.172 347.361 210.915 370.701 208.389Z" fill="#FFBF9D"/>
<path d="M400.977 325.272C390.526 325.799 380.144 323.314 371.063 318.113C371.063 318.113 378.8 333.968 401.152 330.828L400.977 325.272Z" fill="#FF9A6C"/>
<path d="M410.863 266.419C410.912 267.254 410.633 268.076 410.086 268.71C409.539 269.343 408.767 269.739 407.933 269.811C407.526 269.865 407.112 269.836 406.716 269.727C406.32 269.618 405.95 269.43 405.628 269.175C405.306 268.92 405.038 268.603 404.84 268.243C404.642 267.883 404.519 267.486 404.477 267.077C404.425 266.24 404.702 265.415 405.25 264.779C405.797 264.143 406.571 263.746 407.407 263.674C407.815 263.622 408.229 263.652 408.625 263.762C409.021 263.873 409.391 264.062 409.713 264.318C410.035 264.573 410.303 264.891 410.5 265.252C410.698 265.613 410.821 266.009 410.863 266.419Z" fill="#263238"/>
<path d="M412.29 256.032C411.906 256.471 409.382 254.791 405.926 254.934C402.469 255.076 400.022 256.976 399.627 256.57C399.44 256.394 399.802 255.614 400.867 254.747C402.314 253.642 404.063 253.006 405.882 252.924C407.681 252.834 409.463 253.315 410.973 254.297C412.082 255.087 412.477 255.834 412.29 256.032Z" fill="#263238"/>
<path d="M381.576 268.735C381.625 269.574 381.345 270.399 380.796 271.034C380.247 271.67 379.471 272.066 378.635 272.139C378.228 272.19 377.815 272.159 377.421 272.048C377.026 271.938 376.657 271.75 376.335 271.495C376.014 271.241 375.746 270.925 375.547 270.566C375.349 270.208 375.223 269.813 375.178 269.405C375.129 268.566 375.409 267.742 375.958 267.106C376.508 266.47 377.283 266.074 378.119 266.001C378.526 265.948 378.94 265.976 379.336 266.086C379.732 266.195 380.102 266.383 380.425 266.638C380.747 266.893 381.015 267.21 381.213 267.57C381.41 267.93 381.534 268.326 381.576 268.735Z" fill="#263238"/>
<path d="M378.339 258.359C377.955 258.798 375.431 257.119 371.974 257.261C368.518 257.404 366.071 259.293 365.676 258.886C365.478 258.711 365.851 257.931 366.916 257.075C368.358 255.961 370.11 255.324 371.93 255.252C373.731 255.151 375.516 255.632 377.022 256.624C378.119 257.426 378.58 258.162 378.339 258.359Z" fill="#263238"/>
<path d="M392.154 283.394C392.154 283.196 394.261 282.724 397.717 282.098C398.595 281.966 399.429 281.747 399.55 281.143C399.578 280.225 399.325 279.321 398.826 278.551C397.893 276.454 396.905 274.258 395.885 271.963C391.781 262.565 388.763 254.824 389.147 254.659C389.531 254.494 393.152 261.983 397.256 271.381C398.244 273.698 399.199 275.905 400.099 277.969C400.7 279.012 400.921 280.23 400.724 281.417C400.613 281.735 400.431 282.023 400.191 282.259C399.951 282.495 399.661 282.673 399.341 282.779C398.857 282.931 398.356 283.027 397.849 283.064C394.349 283.47 392.176 283.591 392.154 283.394Z" fill="#263238"/>
<path d="M380.676 244.909C380.259 245.809 377.252 244.997 373.598 245.063C369.944 245.128 366.904 245.886 366.52 244.986C366.356 244.568 366.97 243.745 368.243 242.976C369.897 242.042 371.764 241.55 373.664 241.549C375.541 241.522 377.392 241.992 379.03 242.91C380.281 243.668 380.852 244.481 380.676 244.909Z" fill="#263238"/>
<path d="M411.741 241.758C411.061 242.581 408.164 241.901 404.729 242.032C401.295 242.164 398.42 242.878 397.706 242.032C397.399 241.648 397.816 240.847 399.045 240.034C400.753 239.019 402.699 238.477 404.685 238.464C406.66 238.38 408.62 238.832 410.359 239.771C411.61 240.572 412.048 241.363 411.741 241.758Z" fill="#263238"/>
<path d="M413.904 234.555C413.904 234.555 407.265 220.753 400.308 217.799C391.891 214.231 388.797 223.443 380.852 221.631C372.907 219.82 364.864 216.405 357.15 222.861C348.711 229.932 353.046 234.39 353.002 244.404C352.815 285.03 346.001 296.822 342.95 277.86C342.61 275.774 336.739 274.401 335.434 265.617C333.755 254.22 332.624 240.363 334.775 232.095C336.586 225.134 340.262 220.215 346.999 214.648C357.633 205.864 372.798 204.931 383.157 205.458C393.515 205.985 413.959 216.855 413.904 234.555Z" fill="#263238"/>
<path d="M344.354 277.168C344.284 276.344 344.048 275.542 343.659 274.811C343.271 274.081 342.739 273.436 342.095 272.917C341.451 272.398 340.708 272.015 339.912 271.79C339.116 271.566 338.283 271.505 337.463 271.612C333.293 272.216 328.739 274.84 329.441 283.493C330.703 298.865 345.901 294.473 345.846 293.99C345.792 293.506 344.936 283.602 344.354 277.168Z" fill="#FFBF9D"/>
<path d="M342.039 288.478C341.962 288.478 341.786 288.697 341.348 288.939C340.733 289.261 340.017 289.332 339.35 289.136C337.682 288.675 336.058 286.216 335.806 283.449C335.66 282.133 335.81 280.801 336.245 279.551C336.352 279.063 336.575 278.608 336.896 278.225C337.217 277.843 337.626 277.544 338.088 277.355C338.389 277.248 338.717 277.25 339.015 277.36C339.314 277.471 339.565 277.682 339.723 277.959C339.965 278.376 339.888 278.694 339.976 278.705C340.064 278.716 340.283 278.42 340.108 277.805C339.992 277.429 339.752 277.104 339.427 276.883C338.976 276.602 338.433 276.507 337.913 276.619C337.292 276.796 336.727 277.129 336.272 277.587C335.817 278.044 335.486 278.611 335.312 279.232C334.765 280.627 334.569 282.136 334.742 283.624C335.093 286.71 336.936 289.477 339.186 289.938C339.608 290.021 340.043 290.009 340.46 289.905C340.877 289.801 341.266 289.606 341.6 289.334C342.039 288.851 342.094 288.51 342.039 288.478Z" fill="#FF9A6C"/>
<path d="M332.635 243.503C345.408 237.365 356.403 234.104 370.471 230.569C384.539 227.033 402.688 224.156 411.346 225.298C413.357 228.834 414.675 232.721 415.231 236.751C415.231 236.751 356.315 241.143 333.48 255.911L332.635 243.503Z" fill="#455A64"/>
<path d="M340.491 242.219C340.491 242.219 340.491 246.106 345.759 248.093C347.01 248.634 348.415 248.701 349.711 248.28C351.008 247.86 352.107 246.982 352.804 245.809C353.341 244.865 355.569 242.021 355.569 242.021C355.569 242.021 359.014 242.702 360.309 242.779C364.808 243.031 369.779 236.893 369.746 232.963C370.964 234.61 373.203 234.434 375.167 233.808C376.711 233.208 378.015 232.116 378.876 230.701C381.861 226.693 380.818 223.3 380.818 223.3C383.04 223.07 385.189 222.378 387.128 221.269C388.621 219.951 391.386 216.526 391.594 214.505C391.803 212.485 390.651 218.897 392.308 217.722C393.965 216.547 395.929 217.118 397.794 217.294C399.66 217.47 402.052 216.921 402.436 215.098C402.491 214.607 402.446 214.11 402.305 213.636C402.163 213.163 401.928 212.723 401.613 212.342C400.267 210.547 398.357 209.257 396.189 208.679C394.022 208.102 391.723 208.27 389.663 209.158C388.778 206.633 387.165 204.428 385.027 202.82C382.89 201.213 380.324 200.276 377.654 200.128C374.984 199.98 372.33 200.627 370.028 201.988C367.726 203.349 365.879 205.363 364.721 207.774C363.014 206.373 360.995 205.405 358.835 204.952C356.674 204.498 354.436 204.573 352.311 205.17C350.186 205.768 348.236 206.869 346.627 208.381C345.019 209.894 343.798 211.772 343.07 213.857C341.16 213.453 339.173 213.62 337.357 214.338C335.541 215.056 333.977 216.293 332.859 217.895C331.742 219.497 331.12 221.393 331.072 223.346C331.025 225.299 331.553 227.223 332.591 228.878C329.902 230.591 326.808 233.599 327.773 236.641C330.637 245.71 337.463 243.229 340.491 242.241" fill="#263238"/>
<path d="M391.034 213.605C391.047 213.7 391.047 213.796 391.034 213.89C391.028 214.166 391.006 214.441 390.969 214.714C390.819 215.768 390.492 216.788 390.003 217.733C389.232 219.233 388.129 220.536 386.777 221.544C384.996 222.912 382.812 223.654 380.566 223.652L380.807 223.3C381.34 224.681 381.304 226.217 380.709 227.572C380.088 228.987 379.264 230.304 378.262 231.48C377.788 232.159 377.24 232.781 376.626 233.336C375.925 233.868 375.103 234.218 374.234 234.357C373.334 234.533 372.405 234.485 371.527 234.219C370.649 233.953 369.849 233.477 369.198 232.831L369.768 232.633C369.635 234.244 369.165 235.809 368.39 237.228C367.615 238.646 366.552 239.886 365.269 240.868C363.862 242.027 362.118 242.697 360.298 242.779C358.588 242.778 356.889 242.492 355.272 241.933L355.667 241.725C354.964 243.631 353.795 245.329 352.266 246.666C351.567 247.327 350.73 247.825 349.815 248.123C348.9 248.421 347.931 248.512 346.977 248.39C345.344 248.12 343.826 247.379 342.61 246.257C341.393 245.135 340.531 243.682 340.129 242.076L340.48 242.219C338.912 243.183 337.058 243.572 335.235 243.317C333.883 243.135 332.593 242.635 331.471 241.857C330.766 241.368 330.153 240.758 329.661 240.056C329.491 239.814 329.344 239.556 329.222 239.287C329.874 240.206 330.684 241.002 331.614 241.637C332.717 242.353 333.972 242.8 335.279 242.944C337.006 243.157 338.753 242.77 340.228 241.846L340.513 241.67L340.59 241.988C340.987 243.485 341.81 244.835 342.959 245.872C344.109 246.909 345.535 247.589 347.064 247.83C347.934 247.936 348.817 247.846 349.647 247.564C350.477 247.283 351.234 246.818 351.86 246.205C353.299 244.938 354.397 243.329 355.053 241.527L355.163 241.242L355.459 241.329C357.009 241.864 358.637 242.135 360.276 242.131C361.956 242.052 363.564 241.432 364.863 240.363C366.07 239.435 367.072 238.265 367.803 236.929C368.534 235.592 368.979 234.118 369.11 232.6L369.176 231.865L369.68 232.414C370.259 232.982 370.967 233.401 371.742 233.636C372.518 233.871 373.339 233.915 374.136 233.764C374.903 233.638 375.629 233.329 376.253 232.864C376.826 232.343 377.341 231.761 377.79 231.129C378.763 230.003 379.568 228.741 380.182 227.385C380.46 226.782 380.617 226.131 380.643 225.468C380.669 224.805 380.565 224.143 380.335 223.52L380.182 223.158H380.577C382.719 223.17 384.808 222.492 386.535 221.225C387.86 220.273 388.958 219.039 389.751 217.613C390.406 216.361 390.84 215.005 391.034 213.605Z" fill="#455A64"/>
<path d="M405.347 220.483L387.812 222.812C386.466 222.99 385.52 224.227 385.698 225.573L387.126 236.338C387.305 237.685 388.541 238.631 389.886 238.453L407.421 236.124C408.767 235.945 409.713 234.709 409.535 233.362L408.107 222.598C407.928 221.251 406.693 220.304 405.347 220.483Z" fill="#455A64"/>
<path d="M407.418 236.147C407.418 236.147 407.67 236.147 408.098 235.883C408.403 235.73 408.672 235.513 408.888 235.249C409.103 234.984 409.261 234.676 409.349 234.346C409.464 233.866 409.464 233.366 409.349 232.886C409.261 232.326 409.174 231.788 409.086 231.085L408.46 226.693C408.351 225.87 408.23 225.024 408.109 224.135L407.912 222.773C407.876 222.338 407.716 221.923 407.451 221.577C407.163 221.22 406.776 220.956 406.339 220.817C405.902 220.678 405.434 220.671 404.993 220.797L401.854 221.225L387.863 223.103C387.319 223.182 386.823 223.462 386.476 223.89C386.128 224.317 385.954 224.859 385.987 225.409C386.141 226.616 386.294 227.802 386.448 228.966C386.744 231.305 387.04 233.567 387.326 235.719C387.339 236.219 387.463 236.71 387.688 237.157C387.949 237.566 388.333 237.881 388.785 238.058C389.22 238.234 389.697 238.28 390.157 238.189L391.616 238.003L396.938 237.333L404.62 236.4L406.727 236.169C406.971 236.14 407.218 236.14 407.462 236.169C407.224 236.235 406.982 236.286 406.738 236.323L404.653 236.652L396.971 237.75L391.649 238.497L390.201 238.694C389.657 238.799 389.094 238.75 388.577 238.552C388.04 238.332 387.587 237.947 387.282 237.454C387.015 236.944 386.861 236.382 386.832 235.807C386.547 233.655 386.243 231.407 385.921 229.065C385.768 227.879 385.614 226.682 385.449 225.474C385.404 224.778 385.622 224.091 386.062 223.549C386.501 223.007 387.129 222.652 387.82 222.554L401.767 220.698L404.905 220.292C405.441 220.183 405.995 220.21 406.518 220.369C407.03 220.539 407.477 220.86 407.802 221.291C408.116 221.705 408.307 222.2 408.351 222.718L408.515 224.08C408.636 224.969 408.735 225.815 408.844 226.638C409.042 228.252 409.218 229.724 409.382 231.03C409.459 231.678 409.525 232.282 409.591 232.842C409.715 233.354 409.715 233.889 409.591 234.401C409.486 234.753 409.305 235.077 409.06 235.351C408.816 235.624 408.513 235.84 408.175 235.982C407.937 236.09 407.679 236.146 407.418 236.147Z" fill="#263238"/>
<g opacity="0.3">
<path d="M388.347 222.822L392.34 222.291L394.417 237.954L390.425 238.484C389.683 238.583 388.933 238.383 388.339 237.928C387.746 237.473 387.357 236.8 387.258 236.058L385.924 226.001C385.874 225.633 385.897 225.259 385.991 224.899C386.086 224.54 386.251 224.203 386.476 223.908C386.701 223.612 386.982 223.364 387.303 223.178C387.625 222.992 387.979 222.87 388.347 222.822Z" fill="black"/>
</g>
<path d="M406.738 229.163C406.738 230.33 406.392 231.47 405.744 232.439C405.097 233.409 404.177 234.165 403.1 234.611C402.023 235.057 400.838 235.174 399.695 234.946C398.552 234.719 397.502 234.157 396.678 233.333C395.854 232.508 395.293 231.457 395.065 230.314C394.838 229.17 394.955 227.984 395.401 226.907C395.847 225.83 396.602 224.909 397.571 224.261C398.54 223.613 399.679 223.267 400.845 223.267C401.619 223.266 402.386 223.417 403.102 223.713C403.817 224.009 404.467 224.443 405.015 224.991C405.562 225.539 405.996 226.189 406.292 226.905C406.588 227.621 406.739 228.389 406.738 229.163Z" fill="white"/>
<path d="M406.738 229.164C406.683 229.164 406.738 228.637 406.441 227.747C406.075 226.496 405.303 225.403 404.247 224.64C403.485 224.078 402.597 223.714 401.66 223.58C400.724 223.446 399.769 223.546 398.881 223.871C398.119 224.153 397.428 224.596 396.853 225.169C396.277 225.742 395.833 226.433 395.548 227.193C395.264 227.954 395.146 228.767 395.204 229.577C395.262 230.388 395.493 231.176 395.883 231.888C396.273 232.601 396.811 233.221 397.462 233.707C398.112 234.193 398.86 234.533 399.653 234.703C400.447 234.874 401.268 234.872 402.061 234.696C402.853 234.521 403.599 234.177 404.247 233.687C405.303 232.925 406.075 231.831 406.441 230.58C406.694 229.691 406.683 229.164 406.738 229.164C406.793 229.164 406.738 229.295 406.738 229.548C406.741 229.917 406.701 230.286 406.617 230.646C406.322 231.986 405.569 233.182 404.488 234.028C403.682 234.66 402.728 235.077 401.717 235.24C400.706 235.404 399.669 235.307 398.705 234.961C397.551 234.564 396.547 233.82 395.83 232.831C395.046 231.773 394.623 230.491 394.623 229.175C394.623 227.858 395.046 226.576 395.83 225.518C396.55 224.532 397.553 223.789 398.705 223.388C399.67 223.045 400.705 222.95 401.716 223.113C402.727 223.277 403.68 223.692 404.488 224.321C405.569 225.167 406.322 226.363 406.617 227.703C406.7 228.063 406.741 228.432 406.738 228.801C406.771 229.032 406.76 229.164 406.738 229.164Z" fill="#263238"/>
<path d="M391.474 291.486C390.101 290.751 388.619 290.244 387.085 289.982C386.343 289.798 385.566 289.812 384.831 290.021C384.095 290.231 383.428 290.628 382.893 291.175C382.359 291.722 381.977 292.399 381.784 293.139C381.592 293.879 381.596 294.657 381.796 295.395C381.928 296.506 382.341 297.564 382.996 298.471C383.651 299.377 384.525 300.102 385.537 300.577C386.561 301.026 387.703 301.13 388.791 300.875C389.879 300.62 390.855 300.018 391.573 299.161C392.329 297.997 392.712 296.629 392.67 295.241C392.714 293.298 392.056 291.651 391.474 291.486Z" fill="#FF9A6C"/>
<path d="M392.144 298.557C392.198 298.557 391.968 298.93 391.452 299.447C390.721 300.189 389.858 300.789 388.906 301.214C388.182 301.517 387.382 301.594 386.613 301.434C385.775 301.249 384.981 300.902 384.276 300.413C383.451 299.892 382.772 299.17 382.301 298.316C381.873 297.4 381.598 296.421 381.488 295.417C381.292 294.417 381.378 293.381 381.737 292.427C382.095 291.473 382.712 290.638 383.519 290.015C384.289 289.537 385.195 289.325 386.097 289.411C386.829 289.477 387.548 289.639 388.237 289.894C389.21 290.179 390.157 290.546 391.068 290.992C391.683 291.409 391.924 291.739 391.891 291.793C391.858 291.848 391.496 291.651 390.86 291.387C390.223 291.124 389.247 290.981 387.985 290.619C387.358 290.38 386.687 290.277 386.018 290.317C385.348 290.356 384.694 290.538 384.1 290.849C383.486 291.384 383.025 292.072 382.765 292.844C382.504 293.616 382.454 294.443 382.619 295.241C382.717 296.113 382.946 296.964 383.299 297.767C383.67 298.47 384.209 299.07 384.868 299.512C385.372 299.956 385.975 300.27 386.627 300.429C387.279 300.588 387.959 300.586 388.61 300.424C389.521 300.086 390.384 299.632 391.178 299.073C391.749 298.711 392.1 298.491 392.144 298.557Z" fill="#263238"/>
<g opacity="0.6">
<path d="M664.677 326.957C721.772 323.332 765.006 272.266 761.241 212.897C757.477 153.527 708.141 108.337 651.045 111.961C593.95 115.586 550.716 166.652 554.481 226.022C558.245 285.391 607.581 330.581 664.677 326.957Z" fill="#1C9C48"/>
</g>
<g opacity="0.3">
<path d="M554.482 225.935C551.629 181.005 575.705 140.829 612.334 122.372L398.913 223.871C393.591 225.716 393.207 232.447 400.307 235.312L617.919 318.541C582.826 303.048 557.16 268.099 554.482 225.935Z" fill="#1C9C48"/>
</g>
<path d="M564.029 148.889C564.106 149.032 534.401 163.36 497.662 180.895C460.924 198.431 431.098 212.54 431.032 212.397C430.966 212.254 460.66 197.925 497.41 180.379C534.16 162.833 563.93 148.746 564.029 148.889Z" fill="white"/>
<path d="M753.989 193.468C754.048 193.608 754.088 193.756 754.11 193.907C754.176 194.236 754.274 194.676 754.395 195.236C754.516 195.796 754.658 196.553 754.834 197.432C755.01 198.31 755.207 199.276 755.35 200.396C756.36 206.727 756.801 213.136 756.667 219.545C756.584 223.97 756.258 228.387 755.69 232.776C755.503 233.951 755.317 235.148 755.119 236.367L754.823 238.211C754.702 238.826 754.571 239.441 754.439 240.067C754.187 241.308 753.912 242.57 753.649 243.855L752.639 247.698C749.603 258.945 744.835 269.651 738.506 279.43C735.182 284.474 731.465 289.247 727.39 293.704C723.549 297.8 719.432 301.626 715.067 305.156C707.609 311.094 699.339 315.93 690.508 319.518C684.565 321.933 678.323 323.536 671.952 324.283L670.361 324.481C669.857 324.536 669.385 324.536 668.957 324.558L666.762 324.657H665.401H664.984C665.136 324.622 665.29 324.604 665.445 324.602L666.795 324.492L668.99 324.349C669.418 324.349 669.889 324.349 670.383 324.24L671.963 324.009C678.301 323.19 684.503 321.54 690.41 319.101C699.16 315.473 707.353 310.627 714.748 304.706C719.088 301.186 723.18 297.371 726.995 293.287C731.038 288.854 734.732 284.115 738.045 279.112C744.349 269.367 749.116 258.708 752.179 247.511L753.188 243.69C753.462 242.417 753.726 241.165 754 239.924C754.121 239.298 754.252 238.683 754.384 238.08L754.68 236.246C754.878 235.038 755.075 233.841 755.262 232.666C755.85 228.297 756.198 223.898 756.304 219.49C756.477 213.106 756.11 206.719 755.207 200.396C755.086 199.298 754.911 198.277 754.746 197.421L754.351 195.225C754.263 194.665 754.187 194.214 754.132 193.885C754.077 193.556 753.989 193.468 753.989 193.468Z" fill="white"/>
<path d="M750.477 184.464C749.81 182.018 749.012 179.61 748.085 177.25C746.967 174.992 745.732 172.793 744.387 170.662C744.97 171.144 745.473 171.715 745.879 172.353C748.038 175.291 749.536 178.663 750.268 182.235C750.462 182.961 750.532 183.715 750.477 184.464Z" fill="white"/>
<path d="M636.969 318.628C636.914 318.771 612.663 309.757 582.815 298.502C552.968 287.248 528.805 277.981 528.914 277.794C529.024 277.607 553.22 286.655 583.079 297.92C612.937 309.186 637.024 318.475 636.969 318.628Z" fill="white"/>
<path d="M438.933 348.516C417.843 356.707 428.41 354.994 428.388 390.613C428.388 427.363 436.793 445.733 436.793 445.733L494.228 416.405L477.768 382.609C468.002 361.67 463.448 356.301 438.933 348.516Z" fill="#1C9C48"/>
<path d="M330.43 349.461L355.251 339.732L400.955 337.141L422.441 345.31L393 361.67L367.618 360.737L330.43 349.461Z" fill="#FFBF9D"/>
<path d="M447.482 428.659L438.977 348.505C438.977 348.505 416.592 340.819 405.169 337.13C405.169 337.13 393.098 349.669 370.295 349.329C347.943 348.999 343.279 343.948 343.279 343.948L312.038 355.939C312.038 355.939 291.891 365.019 285.998 373.759C277.856 385.76 256.37 415.648 256.37 415.648L296.5 451.882L306.496 440.298L308.471 487.754C350.17 489.653 404.356 490.773 448.809 487.578L447.921 455.165L447.482 428.659Z" fill="#1C9C48"/>
<g opacity="0.3">
<path d="M393.219 404.778L394.953 438.86L417.415 448.906L434.029 434.742V403.208L393.219 404.778Z" fill="black"/>
</g>
<g opacity="0.3">
<path d="M291.156 392.689C290.593 407.484 295.876 421.905 305.86 432.832C302.865 418.931 295.183 405.997 291.156 392.689Z" fill="black"/>
</g>
<path d="M450.686 378.624C450.71 378.806 450.71 378.99 450.686 379.173C450.686 379.59 450.686 380.117 450.686 380.743C450.62 382.192 450.532 384.136 450.412 386.496C450.159 391.36 449.753 398.069 449.238 405.481C448.217 420.293 447.109 432.349 446.538 432.228C446.715 431.55 446.814 430.853 446.834 430.153C446.966 428.802 447.131 426.859 447.317 424.421C447.668 419.48 448.151 412.815 448.678 405.448C449.205 398.08 449.666 391.415 450.017 386.474C450.203 384.114 450.357 382.17 450.467 380.721C450.521 380.106 450.576 379.623 450.62 379.162C450.613 378.98 450.635 378.798 450.686 378.624Z" fill="#263238"/>
<path d="M289.356 389.592C289.499 389.841 289.621 390.102 289.719 390.372L290.662 392.634C291.485 394.654 292.627 397.498 294.031 400.979L305.004 428.615C305.399 429.636 305.795 430.657 306.168 431.602V431.657C306.628 442.483 307.034 452.145 307.342 459.184C307.462 462.631 307.561 465.42 307.627 467.419C307.627 468.352 307.627 469.087 307.682 469.615C307.706 469.87 307.706 470.127 307.682 470.383C307.623 470.131 307.593 469.873 307.594 469.615C307.594 469.055 307.495 468.319 307.441 467.419C307.32 465.42 307.166 462.631 306.969 459.194C306.628 452.156 306.157 442.494 305.619 431.668V431.755C305.246 430.8 304.851 429.79 304.445 428.769L293.68 401.077L290.476 392.656L289.642 390.361C289.518 390.116 289.423 389.858 289.356 389.592Z" fill="#263238"/>
<path d="M458.686 487.644L437.683 488.226V422.906C437.686 420.12 438.793 417.449 440.762 415.479C442.73 413.509 445.4 412.401 448.184 412.398C450.968 412.401 453.638 413.509 455.607 415.479C457.575 417.449 458.683 420.12 458.686 422.906V487.644Z" fill="#455A64"/>
<path d="M346.439 489.104L324.196 488.522L325.447 424.443C325.446 423.063 325.716 421.696 326.244 420.42C326.771 419.145 327.544 417.986 328.52 417.01C329.495 416.033 330.654 415.26 331.928 414.732C333.203 414.204 334.569 413.934 335.949 413.935C337.327 413.935 338.692 414.207 339.966 414.735C341.239 415.263 342.396 416.038 343.371 417.013C344.345 417.989 345.117 419.148 345.644 420.423C346.17 421.697 346.441 423.064 346.439 424.443V489.104Z" fill="#455A64"/>
<path d="M444.837 462.95H341.918V478.201H444.837V462.95Z" fill="#455A64"/>
<path d="M346.505 488.61C346.351 488.61 346.22 474.468 346.22 457.031C346.22 439.595 346.351 425.442 346.505 425.442C346.659 425.442 346.79 439.584 346.79 457.031C346.79 474.479 346.67 488.61 346.505 488.61Z" fill="#263238"/>
<path d="M437.704 487.128C437.551 487.128 437.419 474.83 437.419 459.678C437.419 444.525 437.551 432.228 437.704 432.228C437.858 432.228 437.99 444.514 437.99 459.678C437.99 474.841 437.836 487.128 437.704 487.128Z" fill="#263238"/>
<path d="M655.122 158.153V181.426H650.349L641.088 167.994H640.94V181.426H635.315V158.153H640.156L649.315 171.562H649.509V158.153H655.122ZM680.625 169.789C680.625 172.35 680.133 174.52 679.148 176.301C678.163 178.081 676.83 179.433 675.148 180.358C673.474 181.282 671.595 181.744 669.511 181.744C667.421 181.744 665.538 181.278 663.864 180.346C662.189 179.414 660.86 178.062 659.875 176.289C658.898 174.509 658.409 172.342 658.409 169.789C658.409 167.229 658.898 165.058 659.875 163.278C660.86 161.498 662.189 160.145 663.864 159.221C665.538 158.297 667.421 157.835 669.511 157.835C671.595 157.835 673.474 158.297 675.148 159.221C676.83 160.145 678.163 161.498 679.148 163.278C680.133 165.058 680.625 167.229 680.625 169.789ZM674.875 169.789C674.875 168.274 674.659 166.994 674.227 165.949C673.803 164.903 673.189 164.111 672.386 163.574C671.591 163.036 670.633 162.767 669.511 162.767C668.398 162.767 667.439 163.036 666.636 163.574C665.833 164.111 665.216 164.903 664.784 165.949C664.36 166.994 664.148 168.274 664.148 169.789C664.148 171.305 664.36 172.585 664.784 173.63C665.216 174.676 665.833 175.467 666.636 176.005C667.439 176.543 668.398 176.812 669.511 176.812C670.633 176.812 671.591 176.543 672.386 176.005C673.189 175.467 673.803 174.676 674.227 173.63C674.659 172.585 674.875 171.305 674.875 169.789ZM624.605 220.426H616.003V197.153H624.594C626.965 197.153 629.007 197.619 630.719 198.551C632.439 199.475 633.764 200.808 634.696 202.551C635.628 204.286 636.094 206.361 636.094 208.778C636.094 211.202 635.628 213.286 634.696 215.028C633.772 216.77 632.45 218.108 630.73 219.039C629.01 219.964 626.969 220.426 624.605 220.426ZM621.628 215.63H624.389C625.692 215.63 626.795 215.411 627.696 214.971C628.605 214.524 629.291 213.801 629.753 212.801C630.223 211.793 630.457 210.452 630.457 208.778C630.457 207.104 630.223 205.77 629.753 204.778C629.283 203.778 628.59 203.058 627.673 202.619C626.764 202.172 625.643 201.949 624.31 201.949H621.628V215.63ZM643.037 220.426H636.992L644.844 197.153H652.332L660.185 220.426H654.139L648.673 203.017H648.492L643.037 220.426ZM642.23 211.267H654.867V215.539H642.23V211.267ZM659.023 201.721V197.153H678.693V201.721H671.636V220.426H666.091V201.721H659.023ZM683.568 220.426H677.523L685.375 197.153H692.864L700.716 220.426H694.671L689.205 203.017H689.023L683.568 220.426ZM682.761 211.267H695.398V215.539H682.761V211.267ZM602.659 259.426V236.153H618.546V240.721H608.284V245.494H617.534V250.074H608.284V259.426H602.659ZM643.344 247.789C643.344 250.35 642.851 252.52 641.867 254.301C640.882 256.081 639.548 257.433 637.867 258.358C636.192 259.282 634.314 259.744 632.23 259.744C630.139 259.744 628.257 259.278 626.582 258.346C624.908 257.414 623.579 256.062 622.594 254.289C621.617 252.509 621.128 250.342 621.128 247.789C621.128 245.229 621.617 243.058 622.594 241.278C623.579 239.498 624.908 238.145 626.582 237.221C628.257 236.297 630.139 235.835 632.23 235.835C634.314 235.835 636.192 236.297 637.867 237.221C639.548 238.145 640.882 239.498 641.867 241.278C642.851 243.058 643.344 245.229 643.344 247.789ZM637.594 247.789C637.594 246.274 637.378 244.994 636.946 243.949C636.522 242.903 635.908 242.111 635.105 241.574C634.31 241.036 633.351 240.767 632.23 240.767C631.117 240.767 630.158 241.036 629.355 241.574C628.552 242.111 627.935 242.903 627.503 243.949C627.079 244.994 626.867 246.274 626.867 247.789C626.867 249.305 627.079 250.585 627.503 251.63C627.935 252.676 628.552 253.467 629.355 254.005C630.158 254.543 631.117 254.812 632.23 254.812C633.351 254.812 634.31 254.543 635.105 254.005C635.908 253.467 636.522 252.676 636.946 251.63C637.378 250.585 637.594 249.305 637.594 247.789ZM660.707 236.153H666.321V251.164C666.321 252.899 665.908 254.411 665.082 255.699C664.257 256.979 663.105 257.971 661.628 258.676C660.151 259.373 658.435 259.721 656.48 259.721C654.503 259.721 652.776 259.373 651.298 258.676C649.821 257.971 648.673 256.979 647.855 255.699C647.037 254.411 646.628 252.899 646.628 251.164V236.153H652.253V250.676C652.253 251.479 652.427 252.195 652.776 252.824C653.132 253.452 653.628 253.945 654.264 254.301C654.901 254.657 655.639 254.835 656.48 254.835C657.321 254.835 658.056 254.657 658.685 254.301C659.321 253.945 659.817 253.452 660.173 252.824C660.529 252.195 660.707 251.479 660.707 250.676V236.153ZM689.653 236.153V259.426H684.881L675.619 245.994H675.472V259.426H669.847V236.153H674.688L683.847 249.562H684.04V236.153H689.653ZM701.793 259.426H693.19V236.153H701.781C704.153 236.153 706.194 236.619 707.906 237.551C709.626 238.475 710.952 239.808 711.884 241.551C712.815 243.286 713.281 245.361 713.281 247.778C713.281 250.202 712.815 252.286 711.884 254.028C710.959 255.77 709.637 257.108 707.918 258.039C706.198 258.964 704.156 259.426 701.793 259.426ZM698.815 254.63H701.577C702.88 254.63 703.982 254.411 704.884 253.971C705.793 253.524 706.478 252.801 706.94 251.801C707.41 250.793 707.645 249.452 707.645 247.778C707.645 246.104 707.41 244.77 706.94 243.778C706.471 242.778 705.778 242.058 704.861 241.619C703.952 241.172 702.831 240.949 701.497 240.949H698.815V254.63Z" fill="white"/>
</svg>
